<svg width="1272" height="286" viewBox="0 0 1272 286" fill="none" xmlns="http://www.w3.org/2000/svg">
<g clip-path="url(#clip0_2129_101)">
<path d="M-341.205 21.28C-344.408 19.037 -342.821 14.0035 -338.911 14.0034L-224.755 14.0033C-216.546 14.0033 -208.536 16.5289 -201.812 21.2374L145.922 264.727C149.126 266.97 147.538 272.004 143.628 272.004L29.4758 272.004C21.267 272.004 13.257 269.478 6.53272 264.77L-341.205 21.28Z" fill="url(#paint0_linear_2129_101)" fill-opacity="0.45"/>
<path d="M-338.911 15.0034L-224.755 15.0033C-216.752 15.0033 -208.942 17.4658 -202.386 22.0565L145.349 265.546C147.751 267.229 146.561 271.004 143.628 271.004L29.4758 271.004C21.4723 271.004 13.6624 268.541 7.10629 263.951L-340.631 20.4609C-343.034 18.7786 -341.844 15.0035 -338.911 15.0034Z" stroke="url(#paint1_linear_2129_101)" stroke-opacity="0.25" stroke-width="2"/>
<path d="M-87.248 21.28C-90.4513 19.037 -88.8642 14.0035 -84.9537 14.0034L29.2017 14.0033C37.4106 14.0033 45.4207 16.5289 52.145 21.2374L399.879 264.727C403.083 266.97 401.495 272.004 397.585 272.004L283.433 272.004C275.224 272.004 267.214 269.478 260.49 264.77L-87.248 21.28Z" fill="url(#paint2_linear_2129_101)" fill-opacity="0.45"/>
<path d="M-84.9537 15.0034L29.2017 15.0033C37.2054 15.0033 45.0153 17.4658 51.5715 22.0565L399.306 265.546C401.708 267.229 400.518 271.004 397.585 271.004L283.433 271.004C275.429 271.004 267.619 268.541 261.063 263.951L-86.6744 20.4609C-89.0769 18.7786 -87.8866 15.0035 -84.9537 15.0034Z" stroke="url(#paint3_linear_2129_101)" stroke-opacity="0.25" stroke-width="2"/>
<path d="M166.709 21.28C163.506 19.037 165.093 14.0035 169.003 14.0034L283.159 14.0033C291.368 14.0033 299.378 16.5289 306.102 21.2374L653.836 264.727C657.04 266.97 655.453 272.004 651.542 272.004L537.39 272.004C529.181 272.004 521.171 269.478 514.447 264.77L166.709 21.28Z" fill="url(#paint4_linear_2129_101)" fill-opacity="0.45"/>
<path d="M169.003 15.0034L283.159 15.0033C291.162 15.0033 298.972 17.4658 305.528 22.0565L653.263 265.546C655.665 267.229 654.475 271.004 651.542 271.004L537.39 271.004C529.386 271.004 521.577 268.541 515.02 263.951L167.283 20.4609C164.88 18.7786 166.07 15.0035 169.003 15.0034Z" stroke="url(#paint5_linear_2129_101)" stroke-opacity="0.25" stroke-width="2"/>
<path d="M420.666 21.28C417.463 19.037 419.05 14.0035 422.96 14.0034L537.116 14.0033C545.325 14.0033 553.335 16.5289 560.059 21.2374L907.793 264.727C910.997 266.97 909.41 272.004 905.499 272.004L791.347 272.004C783.138 272.004 775.128 269.478 768.404 264.77L420.666 21.28Z" fill="url(#paint6_linear_2129_101)" fill-opacity="0.45"/>
<path d="M422.96 15.0034L537.116 15.0033C545.119 15.0033 552.929 17.4658 559.486 22.0565L907.22 265.546C909.622 267.229 908.432 271.004 905.499 271.004L791.347 271.004C783.343 271.004 775.534 268.541 768.977 263.951L421.24 20.4609C418.837 18.7786 420.027 15.0035 422.96 15.0034Z" stroke="url(#paint7_linear_2129_101)" stroke-opacity="0.25" stroke-width="2"/>
<path d="M674.623 21.28C671.42 19.037 673.007 14.0035 676.917 14.0034L791.073 14.0033C799.282 14.0033 807.292 16.5289 814.016 21.2374L1161.75 264.727C1164.95 266.97 1163.37 272.004 1159.46 272.004L1045.3 272.004C1037.1 272.004 1029.09 269.478 1022.36 264.77L674.623 21.28Z" fill="url(#paint8_linear_2129_101)" fill-opacity="0.45"/>
<path d="M676.917 15.0034L791.073 15.0033C799.076 15.0033 806.886 17.4658 813.443 22.0565L1161.18 265.546C1163.58 267.229 1162.39 271.004 1159.46 271.004L1045.3 271.004C1037.3 271.004 1029.49 268.541 1022.93 263.951L675.197 20.4609C672.794 18.7786 673.985 15.0035 676.917 15.0034Z" stroke="url(#paint9_linear_2129_101)" stroke-opacity="0.25" stroke-width="2"/>
<path d="M928.58 21.28C925.377 19.037 926.964 14.0035 930.874 14.0034L1045.03 14.0033C1053.24 14.0033 1061.25 16.5289 1067.97 21.2374L1415.71 264.727C1418.91 266.97 1417.32 272.004 1413.41 272.004L1299.26 272.004C1291.05 272.004 1283.04 269.478 1276.32 264.77L928.58 21.28Z" fill="url(#paint10_linear_2129_101)" fill-opacity="0.45"/>
<path d="M930.874 15.0034L1045.03 15.0033C1053.03 15.0033 1060.84 17.4658 1067.4 22.0565L1415.13 265.546C1417.54 267.229 1416.35 271.004 1413.41 271.004L1299.26 271.004C1291.26 271.004 1283.45 268.541 1276.89 263.951L929.154 20.4609C926.751 18.7786 927.942 15.0035 930.874 15.0034Z" stroke="url(#paint11_linear_2129_101)" stroke-opacity="0.25" stroke-width="2"/>
<path d="M1182.54 21.28C1179.33 19.037 1180.92 14.0035 1184.83 14.0034L1298.99 14.0033C1307.2 14.0033 1315.21 16.5289 1321.93 21.2374L1669.66 264.727C1672.87 266.97 1671.28 272.004 1667.37 272.004L1553.22 272.004C1545.01 272.004 1537 269.478 1530.27 264.77L1182.54 21.28Z" fill="url(#paint12_linear_2129_101)" fill-opacity="0.45"/>
<path d="M1184.83 15.0034L1298.99 15.0033C1306.99 15.0033 1314.8 17.4658 1321.36 22.0565L1669.09 265.546C1671.49 267.229 1670.3 271.004 1667.37 271.004L1553.22 271.004C1545.21 271.004 1537.4 268.541 1530.85 263.951L1183.11 20.4609C1180.71 18.7786 1181.9 15.0035 1184.83 15.0034Z" stroke="url(#paint13_linear_2129_101)" stroke-opacity="0.25" stroke-width="2"/>
</g>
<defs>
<linearGradient id="paint0_linear_2129_101" x1="-351.598" y1="-51.5186" x2="106.763" y2="289.425" gradientUnits="userSpaceOnUse">
<stop stop-color="#8895FE"/>
<stop offset="1" stop-color="#DFE3FF" stop-opacity="0"/>
</linearGradient>
<linearGradient id="paint1_linear_2129_101" x1="-169.087" y1="103.762" x2="-281.397" y2="147.277" gradientUnits="userSpaceOnUse">
<stop stop-color="#BFDFFF" stop-opacity="0"/>
<stop offset="1" stop-color="#FABFFF"/>
</linearGradient>
<linearGradient id="paint2_linear_2129_101" x1="-97.6406" y1="-51.5186" x2="360.72" y2="289.425" gradientUnits="userSpaceOnUse">
<stop stop-color="#8895FE"/>
<stop offset="1" stop-color="#DFE3FF" stop-opacity="0"/>
</linearGradient>
<linearGradient id="paint3_linear_2129_101" x1="84.8701" y1="103.762" x2="-27.44" y2="147.277" gradientUnits="userSpaceOnUse">
<stop stop-color="#BFDFFF" stop-opacity="0"/>
<stop offset="1" stop-color="#FABFFF"/>
</linearGradient>
<linearGradient id="paint4_linear_2129_101" x1="156.316" y1="-51.5186" x2="614.677" y2="289.425" gradientUnits="userSpaceOnUse">
<stop stop-color="#8895FE"/>
<stop offset="1" stop-color="#DFE3FF" stop-opacity="0"/>
</linearGradient>
<linearGradient id="paint5_linear_2129_101" x1="338.827" y1="103.762" x2="226.517" y2="147.277" gradientUnits="userSpaceOnUse">
<stop stop-color="#BFDFFF" stop-opacity="0"/>
<stop offset="1" stop-color="#FABFFF"/>
</linearGradient>
<linearGradient id="paint6_linear_2129_101" x1="410.273" y1="-51.5186" x2="868.634" y2="289.425" gradientUnits="userSpaceOnUse">
<stop stop-color="#8895FE"/>
<stop offset="1" stop-color="#DFE3FF" stop-opacity="0"/>
</linearGradient>
<linearGradient id="paint7_linear_2129_101" x1="592.784" y1="103.762" x2="480.474" y2="147.277" gradientUnits="userSpaceOnUse">
<stop stop-color="#BFDFFF" stop-opacity="0"/>
<stop offset="1" stop-color="#FABFFF"/>
</linearGradient>
<linearGradient id="paint8_linear_2129_101" x1="664.23" y1="-51.5186" x2="1122.59" y2="289.425" gradientUnits="userSpaceOnUse">
<stop stop-color="#8895FE"/>
<stop offset="1" stop-color="#DFE3FF" stop-opacity="0"/>
</linearGradient>
<linearGradient id="paint9_linear_2129_101" x1="846.741" y1="103.762" x2="734.431" y2="147.277" gradientUnits="userSpaceOnUse">
<stop stop-color="#BFDFFF" stop-opacity="0"/>
<stop offset="1" stop-color="#FABFFF"/>
</linearGradient>
<linearGradient id="paint10_linear_2129_101" x1="918.187" y1="-51.5186" x2="1376.55" y2="289.425" gradientUnits="userSpaceOnUse">
<stop stop-color="#8895FE"/>
<stop offset="1" stop-color="#DFE3FF" stop-opacity="0"/>
</linearGradient>
<linearGradient id="paint11_linear_2129_101" x1="1100.7" y1="103.762" x2="988.388" y2="147.277" gradientUnits="userSpaceOnUse">
<stop stop-color="#BFDFFF" stop-opacity="0"/>
<stop offset="1" stop-color="#FABFFF"/>
</linearGradient>
<linearGradient id="paint12_linear_2129_101" x1="1172.14" y1="-51.5186" x2="1630.5" y2="289.425" gradientUnits="userSpaceOnUse">
<stop stop-color="#8895FE"/>
<stop offset="1" stop-color="#DFE3FF" stop-opacity="0"/>
</linearGradient>
<linearGradient id="paint13_linear_2129_101" x1="1354.66" y1="103.762" x2="1242.35" y2="147.277" gradientUnits="userSpaceOnUse">
<stop stop-color="#BFDFFF" stop-opacity="0"/>
<stop offset="1" stop-color="#FABFFF"/>
</linearGradient>
<clipPath id="clip0_2129_101">
<rect width="1272" height="286" fill="white"/>
</clipPath>
</defs>
</svg>
