<svg width="199" height="32" viewBox="0 0 199 32" fill="none" xmlns="http://www.w3.org/2000/svg">
<g clip-path="url(#clip0_1316_54791)">
<path d="M46.737 24.74C45.617 24.74 44.577 24.5467 43.617 24.16C42.657 23.7733 41.817 23.2333 41.097 22.54C40.3904 21.8333 39.837 21.0133 39.437 20.08C39.037 19.1467 38.837 18.1333 38.837 17.04C38.837 15.9467 39.0304 14.9333 39.417 14C39.817 13.0667 40.3704 12.2533 41.077 11.56C41.797 10.8667 42.637 10.3267 43.597 9.94C44.557 9.55333 45.6037 9.36 46.737 9.36C47.8704 9.36 48.917 9.55333 49.877 9.94C50.837 10.3267 51.6704 10.8667 52.377 11.56C53.097 12.2533 53.6504 13.0667 54.037 14C54.437 14.9333 54.637 15.9467 54.637 17.04C54.637 18.36 54.3437 19.5667 53.757 20.66C53.1837 21.74 52.4037 22.6267 51.417 23.32L53.157 26.3H49.897L48.857 24.48C48.177 24.6533 47.4704 24.74 46.737 24.74ZM46.737 21.94C46.9504 21.94 47.1637 21.9267 47.377 21.9L45.457 18.54H48.657L49.957 20.76C50.437 20.3333 50.817 19.8 51.097 19.16C51.3904 18.52 51.537 17.8133 51.537 17.04C51.537 16.08 51.3237 15.2333 50.897 14.5C50.4837 13.7667 49.9104 13.1933 49.177 12.78C48.457 12.3667 47.6437 12.16 46.737 12.16C45.8304 12.16 45.0104 12.3667 44.277 12.78C43.557 13.1933 42.9837 13.7667 42.557 14.5C42.1437 15.2333 41.937 16.08 41.937 17.04C41.937 18 42.1437 18.8467 42.557 19.58C42.9837 20.3133 43.557 20.8933 44.277 21.32C45.0104 21.7333 45.8304 21.94 46.737 21.94ZM59.7356 24.74C58.4023 24.74 57.3756 24.3267 56.6556 23.5C55.949 22.66 55.5956 21.56 55.5956 20.2V13.58H58.5956V19.96C58.5956 20.5867 58.7823 21.0933 59.1556 21.48C59.529 21.8533 60.009 22.04 60.5956 22.04C61.1823 22.04 61.6623 21.8533 62.0356 21.48C62.409 21.0933 62.5956 20.5867 62.5956 19.96V13.58H65.5956V24.5H62.7956V23.16C62.5156 23.6933 62.109 24.0933 61.5756 24.36C61.0423 24.6133 60.429 24.74 59.7356 24.74ZM73.1083 24.74C72.4416 24.74 71.8149 24.6333 71.2283 24.42C70.6549 24.1933 70.1749 23.8733 69.7883 23.46V24.5H66.9883V9.36H69.9883V14.5C70.7616 13.7267 71.8083 13.34 73.1283 13.34C74.1683 13.34 75.1083 13.5933 75.9483 14.1C76.7883 14.6067 77.4549 15.2933 77.9483 16.16C78.4416 17.0133 78.6883 17.9733 78.6883 19.04C78.6883 20.0933 78.4416 21.0533 77.9483 21.92C77.4683 22.7867 76.8083 23.4733 75.9683 23.98C75.1283 24.4867 74.1749 24.74 73.1083 24.74ZM72.7483 22.04C73.5749 22.04 74.2549 21.76 74.7883 21.2C75.3216 20.64 75.5883 19.92 75.5883 19.04C75.5883 18.1733 75.3216 17.46 74.7883 16.9C74.2549 16.3267 73.5749 16.04 72.7483 16.04C71.9349 16.04 71.2683 16.32 70.7483 16.88C70.2416 17.44 69.9883 18.16 69.9883 19.04C69.9883 19.9333 70.2416 20.66 70.7483 21.22C71.2683 21.7667 71.9349 22.04 72.7483 22.04ZM79.6453 12.6V9.6H82.6453V12.6H79.6453ZM79.6453 24.5V13.58H82.6453V24.5H79.6453ZM89.4006 24.74C88.3073 24.74 87.3206 24.4933 86.4406 24C85.574 23.4933 84.8806 22.8067 84.3606 21.94C83.854 21.0733 83.6006 20.1 83.6006 19.02C83.6006 17.94 83.854 16.9733 84.3606 16.12C84.8673 15.2533 85.5606 14.5733 86.4406 14.08C87.3206 13.5867 88.3073 13.34 89.4006 13.34C90.214 13.34 90.9673 13.48 91.6606 13.76C92.354 14.04 92.9473 14.4333 93.4406 14.94C93.934 15.4333 94.2873 16.02 94.5006 16.7L91.9006 17.82C91.714 17.2733 91.394 16.84 90.9406 16.52C90.5006 16.2 89.9873 16.04 89.4006 16.04C88.614 16.04 87.9673 16.32 87.4606 16.88C86.954 17.44 86.7006 18.16 86.7006 19.04C86.7006 19.92 86.954 20.64 87.4606 21.2C87.9673 21.76 88.614 22.04 89.4006 22.04C90.0006 22.04 90.5206 21.88 90.9606 21.56C91.4006 21.24 91.714 20.8067 91.9006 20.26L94.5006 21.4C94.3006 22.04 93.954 22.6133 93.4606 23.12C92.9673 23.6267 92.374 24.0267 91.6806 24.32C90.9873 24.6 90.2273 24.74 89.4006 24.74ZM96.9472 24.5V21.5H99.9472V24.5H96.9472ZM108.471 24.74C107.538 24.74 106.658 24.5733 105.831 24.24C105.018 23.8933 104.311 23.4067 103.711 22.78C103.125 22.1533 102.685 21.4133 102.391 20.56L104.931 19.42C105.305 20.2333 105.818 20.8733 106.471 21.34C107.138 21.8067 107.871 22.04 108.671 22.04C109.298 22.04 109.798 21.9 110.171 21.62C110.558 21.3267 110.751 20.94 110.751 20.46C110.751 19.7667 110.311 19.2733 109.431 18.98L106.511 18.02C104.125 17.2333 102.931 15.8267 102.931 13.8C102.931 12.92 103.145 12.1467 103.571 11.48C104.011 10.8133 104.618 10.2933 105.391 9.92C106.178 9.54667 107.078 9.36 108.091 9.36C109.438 9.36 110.618 9.7 111.631 10.38C112.658 11.0467 113.378 11.9667 113.791 13.14L111.271 14.28C110.991 13.5867 110.571 13.0467 110.011 12.66C109.451 12.26 108.811 12.06 108.091 12.06C107.465 12.06 106.958 12.2133 106.571 12.52C106.185 12.8133 105.991 13.2 105.991 13.68C105.991 14.3867 106.445 14.8933 107.351 15.2L110.211 16.12C112.598 16.8933 113.791 18.28 113.791 20.28C113.791 21.1467 113.565 21.92 113.111 22.6C112.658 23.2667 112.031 23.7933 111.231 24.18C110.445 24.5533 109.525 24.74 108.471 24.74ZM120.4 24.74C119.32 24.74 118.334 24.4933 117.44 24C116.56 23.5067 115.854 22.8333 115.32 21.98C114.8 21.1133 114.54 20.1333 114.54 19.04C114.54 17.9333 114.8 16.9533 115.32 16.1C115.854 15.2467 116.56 14.5733 117.44 14.08C118.334 13.5867 119.32 13.34 120.4 13.34C121.48 13.34 122.46 13.5867 123.34 14.08C124.22 14.5733 124.92 15.2467 125.44 16.1C125.974 16.9533 126.24 17.9333 126.24 19.04C126.24 20.1333 125.974 21.1133 125.44 21.98C124.92 22.8333 124.22 23.5067 123.34 24C122.46 24.4933 121.48 24.74 120.4 24.74ZM120.4 22.04C121.214 22.04 121.874 21.76 122.38 21.2C122.887 20.64 123.14 19.92 123.14 19.04C123.14 18.1733 122.887 17.46 122.38 16.9C121.874 16.3267 121.214 16.04 120.4 16.04C119.587 16.04 118.92 16.3267 118.4 16.9C117.894 17.46 117.64 18.1733 117.64 19.04C117.64 19.92 117.894 20.64 118.4 21.2C118.92 21.76 119.587 22.04 120.4 22.04ZM127.208 24.5V9.36H130.208V24.5H127.208ZM135.523 24.74C134.19 24.74 133.163 24.3267 132.443 23.5C131.736 22.66 131.383 21.56 131.383 20.2V13.58H134.383V19.96C134.383 20.5867 134.57 21.0933 134.943 21.48C135.316 21.8533 135.796 22.04 136.383 22.04C136.97 22.04 137.45 21.8533 137.823 21.48C138.196 21.0933 138.383 20.5867 138.383 19.96V13.58H141.383V24.5H138.583V23.16C138.303 23.6933 137.896 24.0933 137.363 24.36C136.83 24.6133 136.216 24.74 135.523 24.74ZM148.036 24.62C146.716 24.62 145.689 24.2667 144.956 23.56C144.236 22.84 143.876 21.84 143.876 20.56V16.18H142.036V13.58H142.136C143.296 13.58 143.876 13.02 143.876 11.9V11.1H146.876V13.58H149.436V16.18H146.876V20.36C146.876 21.4667 147.496 22.02 148.736 22.02C148.922 22.02 149.156 22 149.436 21.96V24.5C149.236 24.5267 149.009 24.5533 148.756 24.58C148.502 24.6067 148.262 24.62 148.036 24.62ZM150.394 12.6V9.6H153.394V12.6H150.394ZM150.394 24.5V13.58H153.394V24.5H150.394ZM160.209 24.74C159.129 24.74 158.142 24.4933 157.249 24C156.369 23.5067 155.662 22.8333 155.129 21.98C154.609 21.1133 154.349 20.1333 154.349 19.04C154.349 17.9333 154.609 16.9533 155.129 16.1C155.662 15.2467 156.369 14.5733 157.249 14.08C158.142 13.5867 159.129 13.34 160.209 13.34C161.289 13.34 162.269 13.5867 163.149 14.08C164.029 14.5733 164.729 15.2467 165.249 16.1C165.782 16.9533 166.049 17.9333 166.049 19.04C166.049 20.1333 165.782 21.1133 165.249 21.98C164.729 22.8333 164.029 23.5067 163.149 24C162.269 24.4933 161.289 24.74 160.209 24.74ZM160.209 22.04C161.022 22.04 161.682 21.76 162.189 21.2C162.696 20.64 162.949 19.92 162.949 19.04C162.949 18.1733 162.696 17.46 162.189 16.9C161.682 16.3267 161.022 16.04 160.209 16.04C159.396 16.04 158.729 16.3267 158.209 16.9C157.702 17.46 157.449 18.1733 157.449 19.04C157.449 19.92 157.702 20.64 158.209 21.2C158.729 21.76 159.396 22.04 160.209 22.04ZM167.016 24.5V13.58H169.816V14.92C170.096 14.3867 170.503 13.9933 171.036 13.74C171.57 13.4733 172.183 13.34 172.876 13.34C173.703 13.34 174.423 13.5133 175.036 13.86C175.663 14.2067 176.15 14.6933 176.496 15.32C176.843 15.9333 177.016 16.6533 177.016 17.48V24.5H174.016V18.12C174.016 17.4933 173.83 16.9933 173.456 16.62C173.083 16.2333 172.603 16.04 172.016 16.04C171.43 16.04 170.95 16.2333 170.576 16.62C170.203 16.9933 170.016 17.4933 170.016 18.12V24.5H167.016ZM182.469 24.74C181.269 24.74 180.222 24.46 179.329 23.9C178.449 23.3267 177.849 22.56 177.529 21.6L179.729 20.56C180.009 21.1467 180.389 21.6067 180.869 21.94C181.349 22.2733 181.882 22.44 182.469 22.44C183.349 22.44 183.789 22.1133 183.789 21.46C183.789 21.02 183.429 20.7 182.709 20.5L180.849 19.98C179.956 19.7267 179.269 19.32 178.789 18.76C178.309 18.1867 178.069 17.5133 178.069 16.74C178.069 16.06 178.242 15.4667 178.589 14.96C178.936 14.4533 179.422 14.06 180.049 13.78C180.676 13.4867 181.396 13.34 182.209 13.34C183.276 13.34 184.209 13.5933 185.009 14.1C185.822 14.5933 186.396 15.2933 186.729 16.2L184.509 17.24C184.349 16.7867 184.056 16.4267 183.629 16.16C183.216 15.88 182.742 15.74 182.209 15.74C181.822 15.74 181.516 15.82 181.289 15.98C181.076 16.14 180.969 16.36 180.969 16.64C180.969 17.0667 181.362 17.3933 182.149 17.62L183.889 18.14C184.796 18.4067 185.489 18.8133 185.969 19.36C186.449 19.8933 186.689 20.5533 186.689 21.34C186.689 22.3533 186.302 23.1733 185.529 23.8C184.756 24.4267 183.736 24.74 182.469 24.74Z" fill="white"/>
<g clip-path="url(#clip1_1316_54791)">
<path fill-rule="evenodd" clip-rule="evenodd" d="M10.7041 0.902832C8.94299 0.902832 7.25409 1.60241 6.00883 2.84767L0 8.85646V11.6069C0 13.5501 0.834685 15.2983 2.16508 16.5126C0.834685 17.7269 0 19.4751 0 21.4183V24.1687L6.00883 30.1775C7.25409 31.4228 8.94299 32.1223 10.7041 32.1223C12.6473 32.1223 14.3955 31.2877 15.6098 29.9573C16.824 31.2877 18.5723 32.1223 20.5154 32.1223C22.2765 32.1223 23.9654 31.4228 25.2107 30.1775L31.2195 24.1687V21.4183C31.2195 19.4751 30.3849 17.7269 29.0544 16.5126C30.3849 15.2983 31.2195 13.5501 31.2195 11.6069V8.85646L25.2107 2.84767C23.9654 1.60241 22.2765 0.902832 20.5154 0.902832C18.5723 0.902832 16.824 1.73751 15.6098 3.06791C14.3955 1.73751 12.6473 0.902832 10.7041 0.902832ZM20.1044 16.5126C20.0296 16.4443 19.9561 16.3741 19.8842 16.3022L15.6098 12.0277L11.3353 16.3022C11.2634 16.3741 11.1899 16.4443 11.1151 16.5126C11.1899 16.5809 11.2634 16.651 11.3353 16.723L15.6098 20.9974L19.8842 16.723C19.9561 16.651 20.0296 16.5809 20.1044 16.5126ZM17.3442 24.1687V25.4823C17.3442 27.2337 18.764 28.6535 20.5154 28.6535C21.3565 28.6535 22.1631 28.3194 22.7579 27.7247L27.7507 22.7318V21.4183C27.7507 19.6668 26.3308 18.247 24.5794 18.247C23.7384 18.247 22.9317 18.5811 22.337 19.1758L17.3442 24.1687ZM13.8754 24.1687L8.8825 19.1758C8.28777 18.5811 7.48116 18.247 6.64009 18.247C4.88866 18.247 3.46883 19.6668 3.46883 21.4183V22.7318L8.46166 27.7247C9.05639 28.3194 9.86302 28.6535 10.7041 28.6535C12.4555 28.6535 13.8754 27.2337 13.8754 25.4823V24.1687ZM13.8754 7.54292V8.85646L8.8825 13.8493C8.28777 14.4441 7.48116 14.7782 6.64009 14.7782C4.88866 14.7782 3.46883 13.3583 3.46883 11.6069V10.2933L8.46166 5.3005C9.05639 4.70578 9.86302 4.37167 10.7041 4.37167C12.4555 4.37167 13.8754 5.79149 13.8754 7.54292ZM22.337 13.8493L17.3442 8.85646V7.54292C17.3442 5.79149 18.764 4.37167 20.5154 4.37167C21.3565 4.37167 22.1631 4.70578 22.7579 5.3005L27.7507 10.2933V11.6069C27.7507 13.3583 26.3308 14.7782 24.5794 14.7782C23.7384 14.7782 22.9317 14.4441 22.337 13.8493Z" fill="url(#paint0_linear_1316_54791)"/>
</g>
</g>
<defs>
<linearGradient id="paint0_linear_1316_54791" x1="9.65437" y1="0.902832" x2="31.2197" y2="36.3869" gradientUnits="userSpaceOnUse">
<stop stop-color="#E6B1FE"/>
<stop offset="1" stop-color="#9B88FD"/>
</linearGradient>
<clipPath id="clip0_1316_54791">
<rect width="199" height="32" fill="white"/>
</clipPath>
<clipPath id="clip1_1316_54791">
<rect width="31.2195" height="32" fill="white" transform="translate(0 0.5)"/>
</clipPath>
</defs>
</svg>
