<svg width="28" height="26" viewBox="0 0 28 26" fill="none" xmlns="http://www.w3.org/2000/svg">
<path d="M25.7179 1L15.5818 8.5L17.4667 4.08001L25.7179 1Z" fill="#E17726" stroke="#E17726" stroke-width="0.192935" stroke-linecap="round" stroke-linejoin="round"/>
<path d="M2.33765 1L12.3835 8.56999L10.5889 4.08L2.33765 1Z" fill="#E27625" stroke="#E27625" stroke-width="0.192935" stroke-linecap="round" stroke-linejoin="round"/>
<path d="M22.0675 18.3899L19.3706 22.5099L25.1455 24.0999L26.7998 18.48L22.0675 18.3899Z" fill="#E27625" stroke="#E27625" stroke-width="0.192935" stroke-linecap="round" stroke-linejoin="round"/>
<path d="M1.2644 18.48L2.90863 24.0999L8.67348 22.5099L5.98655 18.3899L1.2644 18.48Z" fill="#E27625" stroke="#E27625" stroke-width="0.192935" stroke-linecap="round" stroke-linejoin="round"/>
<path d="M8.36264 11.4299L6.75854 13.85L12.4732 14.11L12.2828 7.95996L8.36264 11.4299Z" fill="#E27625" stroke="#E27625" stroke-width="0.192935" stroke-linecap="round" stroke-linejoin="round"/>
<path d="M19.6923 11.4301L15.7121 7.89014L15.5818 14.1101L21.2964 13.8501L19.6923 11.4301Z" fill="#E27625" stroke="#E27625" stroke-width="0.192935" stroke-linecap="round" stroke-linejoin="round"/>
<path d="M8.67358 22.51L12.1324 20.84L9.15484 18.52L8.67358 22.51Z" fill="#E27625" stroke="#E27625" stroke-width="0.192935" stroke-linecap="round" stroke-linejoin="round"/>
<path d="M15.9226 20.84L19.3714 22.51L18.9002 18.52L15.9226 20.84Z" fill="#E27625" stroke="#E27625" stroke-width="0.192935" stroke-linecap="round" stroke-linejoin="round"/>
<path d="M19.3714 22.5101L15.9226 20.8401L16.2033 23.0801L16.1732 24.0301L19.3714 22.5101Z" fill="#D5BFB2" stroke="#D5BFB2" stroke-width="0.192935" stroke-linecap="round" stroke-linejoin="round"/>
<path d="M8.67358 22.5101L11.8819 24.0301L11.8618 23.0801L12.1324 20.8401L8.67358 22.5101Z" fill="#D5BFB2" stroke="#D5BFB2" stroke-width="0.192935" stroke-linecap="round" stroke-linejoin="round"/>
<path d="M11.9423 17.04L9.07495 16.2L11.1002 15.27L11.9423 17.04Z" fill="#233447" stroke="#233447" stroke-width="0.192935" stroke-linecap="round" stroke-linejoin="round"/>
<path d="M16.113 17.04L16.9552 15.27L18.9905 16.2L16.113 17.04Z" fill="#233447" stroke="#233447" stroke-width="0.192935" stroke-linecap="round" stroke-linejoin="round"/>
<path d="M8.67395 22.5099L9.17527 18.3899L5.98706 18.48L8.67395 22.5099Z" fill="#CC6228" stroke="#CC6228" stroke-width="0.192935" stroke-linecap="round" stroke-linejoin="round"/>
<path d="M18.8796 18.3899L19.3709 22.5099L22.0678 18.48L18.8796 18.3899Z" fill="#CC6228" stroke="#CC6228" stroke-width="0.192935" stroke-linecap="round" stroke-linejoin="round"/>
<path d="M21.2964 13.8499L15.5818 14.1099L16.1131 17.0399L16.9553 15.2699L18.9906 16.1999L21.2964 13.8499Z" fill="#CC6228" stroke="#CC6228" stroke-width="0.192935" stroke-linecap="round" stroke-linejoin="round"/>
<path d="M9.0745 16.1999L11.0997 15.2699L11.9419 17.0399L12.4732 14.1099L6.75854 13.8499L9.0745 16.1999Z" fill="#CC6228" stroke="#CC6228" stroke-width="0.192935" stroke-linecap="round" stroke-linejoin="round"/>
<path d="M6.75952 13.8499L9.1557 18.5199L9.07544 16.1999L6.75952 13.8499Z" fill="#E27525" stroke="#E27525" stroke-width="0.192935" stroke-linecap="round" stroke-linejoin="round"/>
<path d="M18.9904 16.1999L18.9001 18.5199L21.2963 13.8499L18.9904 16.1999Z" fill="#E27525" stroke="#E27525" stroke-width="0.192935" stroke-linecap="round" stroke-linejoin="round"/>
<path d="M12.4736 14.1099L11.9421 17.0399L12.6139 20.4999L12.7643 15.9399L12.4736 14.1099Z" fill="#E27525" stroke="#E27525" stroke-width="0.192935" stroke-linecap="round" stroke-linejoin="round"/>
<path d="M15.5813 14.1099L15.3005 15.9299L15.4409 20.4999L16.1126 17.0399L15.5813 14.1099Z" fill="#E27525" stroke="#E27525" stroke-width="0.192935" stroke-linecap="round" stroke-linejoin="round"/>
<path d="M16.1129 17.04L15.4412 20.4999L15.9224 20.84L18.9001 18.52L18.9903 16.2L16.1129 17.04Z" fill="#F5841F" stroke="#F5841F" stroke-width="0.192935" stroke-linecap="round" stroke-linejoin="round"/>
<path d="M9.07495 16.2002L9.15521 18.5202L12.1328 20.8402L12.6141 20.5002L11.9423 17.0402L9.07495 16.2002Z" fill="#F5841F" stroke="#F5841F" stroke-width="0.192935" stroke-linecap="round" stroke-linejoin="round"/>
<path d="M16.1729 24.03L16.2029 23.08L15.9423 22.86H12.1125L11.8618 23.08L11.8819 24.03L8.67358 22.51L9.79647 23.43L12.0723 25H15.9723L18.2582 23.43L19.3711 22.51L16.1729 24.03Z" fill="#C0AC9D" stroke="#C0AC9D" stroke-width="0.192935" stroke-linecap="round" stroke-linejoin="round"/>
<path d="M15.9225 20.84L15.4412 20.5H12.614L12.1328 20.84L11.8621 23.08L12.1127 22.86H15.9426L16.2033 23.08L15.9225 20.84Z" fill="#161616" stroke="#161616" stroke-width="0.192935" stroke-linecap="round" stroke-linejoin="round"/>
<path d="M26.1489 8.98997L27.0011 4.85L25.7178 1L15.9226 8.25003L19.6922 11.43L25.0159 12.98L26.189 11.61L25.6777 11.24L26.4897 10.5L25.8682 10.02L26.6803 9.4L26.1489 8.98997Z" fill="#763E1A" stroke="#763E1A" stroke-width="0.192935" stroke-linecap="round" stroke-linejoin="round"/>
<path d="M1.05444 4.85L1.91666 8.98997L1.36525 9.4L2.18736 10.02L1.56576 10.5L2.37785 11.24L1.86653 11.61L3.03955 12.98L8.36328 11.43L12.1329 8.25003L2.33775 1L1.05444 4.85Z" fill="#763E1A" stroke="#763E1A" stroke-width="0.192935" stroke-linecap="round" stroke-linejoin="round"/>
<path d="M25.0159 12.9799L19.6922 11.4299L21.2963 13.85L18.9001 18.5199L22.0683 18.4799H26.8004L25.0159 12.9799Z" fill="#F5841F" stroke="#F5841F" stroke-width="0.192935" stroke-linecap="round" stroke-linejoin="round"/>
<path d="M8.36263 11.4299L3.03897 12.9799L1.2644 18.4799H5.98655L9.15466 18.5199L6.75853 13.85L8.36263 11.4299Z" fill="#F5841F" stroke="#F5841F" stroke-width="0.192935" stroke-linecap="round" stroke-linejoin="round"/>
<path d="M15.5815 14.1101L15.9223 8.25004L17.4663 4.08008H10.5886L12.1326 8.25004L12.4734 14.1101L12.6038 15.9501L12.6138 20.5001H15.4411L15.4511 15.9501L15.5815 14.1101Z" fill="#F5841F" stroke="#F5841F" stroke-width="0.192935" stroke-linecap="round" stroke-linejoin="round"/>
</svg>
