<svg width="262" height="43" viewBox="0 0 262 43" fill="none" xmlns="http://www.w3.org/2000/svg">
<g clip-path="url(#clip0_1375_2631)">
<path d="M61.9368 31.9566C60.4668 31.9566 59.1018 31.7029 57.8418 31.1954C56.5818 30.6879 55.4793 29.9791 54.5343 29.0691C53.6068 28.1416 52.8806 27.0654 52.3556 25.8404C51.8306 24.6154 51.5681 23.2854 51.5681 21.8504C51.5681 20.4154 51.8218 19.0854 52.3293 17.8604C52.8543 16.6354 53.5806 15.5679 54.5081 14.6579C55.4531 13.7479 56.5556 13.0391 57.8156 12.5316C59.0756 12.0241 60.4493 11.7704 61.9368 11.7704C63.4243 11.7704 64.7981 12.0241 66.0581 12.5316C67.3181 13.0391 68.4118 13.7479 69.3393 14.6579C70.2843 15.5679 71.0106 16.6354 71.5181 17.8604C72.0431 19.0854 72.3056 20.4154 72.3056 21.8504C72.3056 23.5829 71.9206 25.1666 71.1506 26.6016C70.3981 28.0191 69.3743 29.1829 68.0793 30.0929L70.3631 34.0041H66.0843L64.7193 31.6154C63.8268 31.8429 62.8993 31.9566 61.9368 31.9566ZM61.9368 28.2816C62.2168 28.2816 62.4968 28.2641 62.7768 28.2291L60.2568 23.8191H64.4568L66.1631 26.7329C66.7931 26.1729 67.2918 25.4729 67.6593 24.6329C68.0443 23.7929 68.2368 22.8654 68.2368 21.8504C68.2368 20.5904 67.9568 19.4791 67.3968 18.5166C66.8543 17.5541 66.1018 16.8016 65.1393 16.2591C64.1943 15.7166 63.1268 15.4454 61.9368 15.4454C60.7468 15.4454 59.6706 15.7166 58.7081 16.2591C57.7631 16.8016 57.0106 17.5541 56.4506 18.5166C55.9081 19.4791 55.6368 20.5904 55.6368 21.8504C55.6368 23.1104 55.9081 24.2216 56.4506 25.1841C57.0106 26.1466 57.7631 26.9079 58.7081 27.4679C59.6706 28.0104 60.7468 28.2816 61.9368 28.2816ZM78.9975 31.9566C77.2475 31.9566 75.9 31.4141 74.955 30.3291C74.0275 29.2266 73.5637 27.7829 73.5637 25.9979V17.3091H77.5012V25.6829C77.5012 26.5054 77.7462 27.1704 78.2362 27.6779C78.7262 28.1679 79.3562 28.4129 80.1262 28.4129C80.8962 28.4129 81.5262 28.1679 82.0162 27.6779C82.5062 27.1704 82.7512 26.5054 82.7512 25.6829V17.3091H86.6887V31.6416H83.0137V29.8829C82.6462 30.5829 82.1125 31.1079 81.4125 31.4579C80.7125 31.7904 79.9075 31.9566 78.9975 31.9566ZM96.5491 31.9566C95.6741 31.9566 94.8516 31.8166 94.0816 31.5366C93.3291 31.2391 92.6991 30.8191 92.1916 30.2766V31.6416H88.5166V11.7704H92.4541V18.5166C93.4691 17.5016 94.8429 16.9941 96.5754 16.9941C97.9404 16.9941 99.1741 17.3266 100.277 17.9916C101.379 18.6566 102.254 19.5579 102.902 20.6954C103.549 21.8154 103.873 23.0754 103.873 24.4754C103.873 25.8579 103.549 27.1179 102.902 28.2554C102.272 29.3929 101.405 30.2941 100.303 30.9591C99.2004 31.6241 97.9491 31.9566 96.5491 31.9566ZM96.0766 28.4129C97.1616 28.4129 98.0541 28.0454 98.7541 27.3104C99.4541 26.5754 99.8041 25.6304 99.8041 24.4754C99.8041 23.3379 99.4541 22.4016 98.7541 21.6666C98.0541 20.9141 97.1616 20.5379 96.0766 20.5379C95.0091 20.5379 94.1341 20.9054 93.4516 21.6404C92.7866 22.3754 92.4541 23.3204 92.4541 24.4754C92.4541 25.6479 92.7866 26.6016 93.4516 27.3366C94.1341 28.0541 95.0091 28.4129 96.0766 28.4129ZM105.129 16.0229V12.0853H109.066V16.0229H105.129ZM105.129 31.6416V17.3091H109.066V31.6416H105.129ZM117.933 31.9566C116.498 31.9566 115.203 31.6329 114.048 30.9854C112.91 30.3204 112 29.4191 111.318 28.2816C110.653 27.1441 110.32 25.8666 110.32 24.4491C110.32 23.0316 110.653 21.7629 111.318 20.6429C111.983 19.5054 112.893 18.6129 114.048 17.9654C115.203 17.3179 116.498 16.9941 117.933 16.9941C119 16.9941 119.989 17.1779 120.899 17.5454C121.809 17.9129 122.588 18.4291 123.235 19.0941C123.883 19.7416 124.347 20.5116 124.627 21.4041L121.214 22.8741C120.969 22.1566 120.549 21.5879 119.954 21.1679C119.377 20.7479 118.703 20.5379 117.933 20.5379C116.9 20.5379 116.052 20.9054 115.387 21.6404C114.722 22.3754 114.389 23.3204 114.389 24.4754C114.389 25.6304 114.722 26.5754 115.387 27.3104C116.052 28.0454 116.9 28.4129 117.933 28.4129C118.72 28.4129 119.403 28.2029 119.98 27.7829C120.558 27.3629 120.969 26.7941 121.214 26.0766L124.627 27.5729C124.364 28.4129 123.909 29.1654 123.262 29.8304C122.614 30.4954 121.835 31.0204 120.925 31.4054C120.015 31.7729 119.018 31.9566 117.933 31.9566ZM127.838 31.6416V27.7041H131.775V31.6416H127.838ZM142.963 31.9566C141.738 31.9566 140.583 31.7379 139.498 31.3004C138.43 30.8454 137.503 30.2066 136.715 29.3841C135.945 28.5616 135.368 27.5904 134.983 26.4704L138.317 24.9741C138.807 26.0416 139.48 26.8816 140.338 27.4941C141.213 28.1066 142.175 28.4129 143.225 28.4129C144.048 28.4129 144.704 28.2291 145.194 27.8616C145.702 27.4766 145.955 26.9691 145.955 26.3391C145.955 25.4291 145.378 24.7816 144.223 24.3966L140.39 23.1366C137.258 22.1041 135.692 20.2579 135.692 17.5979C135.692 16.4429 135.972 15.4279 136.532 14.5529C137.109 13.6779 137.905 12.9954 138.92 12.5054C139.953 12.0154 141.134 11.7704 142.464 11.7704C144.232 11.7704 145.78 12.2166 147.11 13.1091C148.458 13.9841 149.403 15.1916 149.945 16.7316L146.638 18.2279C146.27 17.3179 145.719 16.6091 144.984 16.1016C144.249 15.5766 143.409 15.3141 142.464 15.3141C141.642 15.3141 140.977 15.5154 140.469 15.9179C139.962 16.3029 139.708 16.8104 139.708 17.4404C139.708 18.3679 140.303 19.0329 141.493 19.4354L145.247 20.6429C148.379 21.6579 149.945 23.4779 149.945 26.1029C149.945 27.2404 149.648 28.2554 149.053 29.1479C148.458 30.0229 147.635 30.7141 146.585 31.2216C145.553 31.7116 144.345 31.9566 142.963 31.9566ZM158.62 31.9566C157.203 31.9566 155.908 31.6329 154.735 30.9854C153.58 30.3379 152.653 29.4541 151.953 28.3341C151.27 27.1966 150.929 25.9104 150.929 24.4754C150.929 23.0229 151.27 21.7366 151.953 20.6166C152.653 19.4966 153.58 18.6129 154.735 17.9654C155.908 17.3179 157.203 16.9941 158.62 16.9941C160.038 16.9941 161.324 17.3179 162.479 17.9654C163.634 18.6129 164.553 19.4966 165.235 20.6166C165.935 21.7366 166.285 23.0229 166.285 24.4754C166.285 25.9104 165.935 27.1966 165.235 28.3341C164.553 29.4541 163.634 30.3379 162.479 30.9854C161.324 31.6329 160.038 31.9566 158.62 31.9566ZM158.62 28.4129C159.688 28.4129 160.554 28.0454 161.219 27.3104C161.884 26.5754 162.216 25.6304 162.216 24.4754C162.216 23.3379 161.884 22.4016 161.219 21.6666C160.554 20.9141 159.688 20.5379 158.62 20.5379C157.553 20.5379 156.678 20.9141 155.995 21.6666C155.33 22.4016 154.998 23.3379 154.998 24.4754C154.998 25.6304 155.33 26.5754 155.995 27.3104C156.678 28.0454 157.553 28.4129 158.62 28.4129ZM167.555 31.6416V11.7704H171.492V31.6416H167.555ZM178.469 31.9566C176.719 31.9566 175.371 31.4141 174.426 30.3291C173.499 29.2266 173.035 27.7829 173.035 25.9979V17.3091H176.972V25.6829C176.972 26.5054 177.217 27.1704 177.707 27.6779C178.197 28.1679 178.827 28.4129 179.597 28.4129C180.367 28.4129 180.997 28.1679 181.487 27.6779C181.977 27.1704 182.222 26.5054 182.222 25.6829V17.3091H186.16V31.6416H182.485V29.8829C182.117 30.5829 181.584 31.1079 180.884 31.4579C180.184 31.7904 179.379 31.9566 178.469 31.9566ZM194.891 31.7991C193.159 31.7991 191.811 31.3354 190.849 30.4079C189.904 29.4629 189.431 28.1504 189.431 26.4704V20.7216H187.016V17.3091H187.148C188.67 17.3091 189.431 16.5741 189.431 15.1041V14.0541H193.369V17.3091H196.729V20.7216H193.369V26.2079C193.369 27.6604 194.183 28.3866 195.81 28.3866C196.055 28.3866 196.361 28.3604 196.729 28.3079V31.6416C196.466 31.6766 196.169 31.7116 195.836 31.7466C195.504 31.7816 195.189 31.7991 194.891 31.7991ZM197.986 16.0229V12.0853H201.924V16.0229H197.986ZM197.986 31.6416V17.3091H201.924V31.6416H197.986ZM210.869 31.9566C209.451 31.9566 208.156 31.6329 206.984 30.9854C205.829 30.3379 204.901 29.4541 204.201 28.3341C203.519 27.1966 203.178 25.9104 203.178 24.4754C203.178 23.0229 203.519 21.7366 204.201 20.6166C204.901 19.4966 205.829 18.6129 206.984 17.9654C208.156 17.3179 209.451 16.9941 210.869 16.9941C212.286 16.9941 213.573 17.3179 214.728 17.9654C215.883 18.6129 216.801 19.4966 217.484 20.6166C218.184 21.7366 218.534 23.0229 218.534 24.4754C218.534 25.9104 218.184 27.1966 217.484 28.3341C216.801 29.4541 215.883 30.3379 214.728 30.9854C213.573 31.6329 212.286 31.9566 210.869 31.9566ZM210.869 28.4129C211.936 28.4129 212.803 28.0454 213.468 27.3104C214.133 26.5754 214.465 25.6304 214.465 24.4754C214.465 23.3379 214.133 22.4016 213.468 21.6666C212.803 20.9141 211.936 20.5379 210.869 20.5379C209.801 20.5379 208.926 20.9141 208.244 21.6666C207.579 22.4016 207.246 23.3379 207.246 24.4754C207.246 25.6304 207.579 26.5754 208.244 27.3104C208.926 28.0454 209.801 28.4129 210.869 28.4129ZM219.804 31.6416V17.3091H223.479V19.0679C223.846 18.3679 224.38 17.8516 225.08 17.5191C225.78 17.1691 226.585 16.9941 227.495 16.9941C228.58 16.9941 229.525 17.2216 230.33 17.6766C231.152 18.1316 231.791 18.7704 232.246 19.5929C232.701 20.3979 232.929 21.3429 232.929 22.4279V31.6416H228.991V23.2679C228.991 22.4454 228.746 21.7891 228.256 21.2991C227.766 20.7916 227.136 20.5379 226.366 20.5379C225.596 20.5379 224.966 20.7916 224.476 21.2991C223.986 21.7891 223.741 22.4454 223.741 23.2679V31.6416H219.804ZM240.085 31.9566C238.51 31.9566 237.136 31.5891 235.964 30.8541C234.809 30.1016 234.021 29.0954 233.601 27.8354L236.489 26.4704C236.856 27.2404 237.355 27.8441 237.985 28.2816C238.615 28.7191 239.315 28.9379 240.085 28.9379C241.24 28.9379 241.818 28.5091 241.818 27.6516C241.818 27.0741 241.345 26.6541 240.4 26.3916L237.959 25.7091C236.786 25.3766 235.885 24.8429 235.255 24.1079C234.625 23.3554 234.31 22.4716 234.31 21.4566C234.31 20.5641 234.538 19.7854 234.993 19.1204C235.448 18.4554 236.086 17.9391 236.909 17.5716C237.731 17.1866 238.676 16.9941 239.744 16.9941C241.144 16.9941 242.369 17.3266 243.419 17.9916C244.486 18.6391 245.239 19.5579 245.676 20.7479L242.763 22.1129C242.553 21.5179 242.168 21.0454 241.608 20.6954C241.065 20.3279 240.444 20.1441 239.744 20.1441C239.236 20.1441 238.834 20.2491 238.536 20.4591C238.256 20.6691 238.116 20.9579 238.116 21.3254C238.116 21.8854 238.633 22.3141 239.665 22.6116L241.949 23.2941C243.139 23.6441 244.049 24.1779 244.679 24.8954C245.309 25.5954 245.624 26.4616 245.624 27.4941C245.624 28.8241 245.116 29.9004 244.101 30.7229C243.086 31.5454 241.748 31.9566 240.085 31.9566Z" fill="white"/>
<g clip-path="url(#clip1_1375_2631)">
<path fill-rule="evenodd" clip-rule="evenodd" d="M14.6441 1.23242C12.3326 1.23242 10.116 2.15062 8.48156 3.78503L0.594971 11.6716V15.2815C0.594971 17.8319 1.69049 20.1265 3.43664 21.7202C1.69049 23.314 0.594971 25.6085 0.594971 28.1589V31.7689L8.48156 39.6554C10.116 41.2899 12.3326 42.208 14.6441 42.208C17.1945 42.208 19.489 41.1125 21.0828 39.3664C22.6765 41.1125 24.9711 42.208 27.5215 42.208C29.8329 42.208 32.0496 41.2899 33.684 39.6554L41.5706 31.7689V28.1589C41.5706 25.6085 40.4751 23.314 38.7289 21.7202C40.4751 20.1265 41.5706 17.8319 41.5706 15.2815V11.6716L33.684 3.78503C32.0496 2.15062 29.8329 1.23242 27.5215 1.23242C24.9711 1.23242 22.6765 2.32794 21.0828 4.07409C19.489 2.32794 17.1945 1.23242 14.6441 1.23242ZM26.982 21.7202C26.8838 21.6306 26.7874 21.5385 26.693 21.444L21.0828 15.8339L15.4726 21.444C15.3782 21.5385 15.2818 21.6306 15.1835 21.7202C15.2818 21.8098 15.3782 21.9019 15.4726 21.9964L21.0828 27.6066L26.693 21.9964C26.7874 21.9019 26.8838 21.8098 26.982 21.7202ZM23.3592 31.7689V33.4929C23.3592 35.7916 25.2227 37.6552 27.5215 37.6552C28.6254 37.6552 29.6841 37.2167 30.4647 36.4361L37.0178 29.883V28.1589C37.0178 25.8602 35.1542 23.9966 32.8555 23.9966C31.7516 23.9966 30.6929 24.4352 29.9123 25.2157L23.3592 31.7689ZM18.8064 31.7689L12.2532 25.2157C11.4727 24.4352 10.414 23.9966 9.31009 23.9966C7.01133 23.9966 5.14781 25.8602 5.14781 28.1589V29.883L11.7009 36.4361C12.4815 37.2167 13.5402 37.6552 14.6441 37.6552C16.9428 37.6552 18.8064 35.7916 18.8064 33.4929V31.7689ZM18.8064 9.94754V11.6716L12.2532 18.2247C11.4727 19.0053 10.414 19.4438 9.31009 19.4438C7.01133 19.4438 5.14781 17.5802 5.14781 15.2815V13.5575L11.7009 7.00437C12.4815 6.22379 13.5402 5.78527 14.6441 5.78527C16.9428 5.78527 18.8064 7.64878 18.8064 9.94754ZM29.9123 18.2247L23.3592 11.6716V9.94754C23.3592 7.64878 25.2227 5.78527 27.5215 5.78527C28.6254 5.78527 29.6841 6.22379 30.4647 7.00437L37.0178 13.5575V15.2815C37.0178 17.5802 35.1542 19.4438 32.8555 19.4438C31.7516 19.4438 30.6929 19.0053 29.9123 18.2247Z" fill="white"/>
</g>
</g>
<defs>
<clipPath id="clip0_1375_2631">
<rect width="261.188" height="42" fill="white" transform="translate(0.594727 0.0478516)"/>
</clipPath>
<clipPath id="clip1_1375_2631">
<rect width="40.9756" height="42" fill="white" transform="translate(0.594971 0.704102)"/>
</clipPath>
</defs>
</svg>
