<svg width="151" height="58" viewBox="0 0 151 58" fill="none" xmlns="http://www.w3.org/2000/svg">
<g clip-path="url(#clip0_2185_259)">
<mask id="mask0_2185_259" style="mask-type:alpha" maskUnits="userSpaceOnUse" x="0" y="0" width="2290" height="58">
<path d="M41.3856 36.6983C41.3856 37.5432 40.7004 38.228 39.8562 38.228H24.4622C23.6177 38.228 22.9328 37.5432 22.9328 36.6983V21.3038C22.9328 20.459 23.6177 19.7742 24.4622 19.7742H39.8562C40.7004 19.7742 41.3856 20.459 41.3856 21.3038V36.6983ZM41.812 14.5H22.5042C19.8279 14.5 17.6582 16.6692 17.6582 19.346V38.6531C17.6582 41.3294 19.8279 43.4999 22.5042 43.4999H41.812C44.4884 43.4999 46.6588 41.3294 46.6588 38.6531V19.346C46.6588 16.6692 44.4884 14.5 41.812 14.5Z" fill="#1A1A1A"/>
<path d="M29.0807 32.9352C28.5941 32.9352 28.2034 32.5403 28.2034 32.0533V25.9083C28.2034 25.4205 28.5941 25.0257 29.0807 25.0257H35.235C35.7204 25.0257 36.1125 25.4205 36.1125 25.9083V32.0533C36.1125 32.5403 35.7204 32.9352 35.235 32.9352H29.0807Z" fill="#1A1A1A"/>
<path d="M54.346 32.5163H57.5124C57.6706 34.3106 58.8844 35.7089 61.3383 35.7089C63.5282 35.7089 64.874 34.6272 64.874 32.9912C64.874 31.4609 63.8185 30.7748 61.9187 30.3264L59.4649 29.7986C56.8 29.218 54.7946 27.5029 54.7946 24.7061C54.7946 21.6189 57.5387 19.508 61.1008 19.508C64.874 19.508 67.3014 21.487 67.5126 24.4158H64.4518C64.0825 23.0438 62.9478 22.2257 61.1008 22.2257C59.1482 22.2257 57.8026 23.2812 57.8026 24.6269C57.8026 25.9726 58.9636 26.7905 60.9689 27.2391L63.3964 27.7669C66.0614 28.3473 67.882 29.9568 67.882 32.7801C67.882 36.3685 65.1905 38.5059 61.3383 38.5059C57.011 38.5059 54.6099 36.1575 54.346 32.5163Z" fill="#1A1A1A"/>
<path d="M79.3143 31.6222C79.3143 28.9568 77.6841 27.4041 75.6915 27.4041C73.6987 27.4041 72.0685 28.9568 72.0685 31.6222C72.0685 34.2877 73.6987 35.8403 75.6915 35.8403C77.6841 35.8403 79.3143 34.2877 79.3143 31.6222ZM79.2109 43.5002V38.247L79.4178 35.9439H79.2109C78.4862 37.6 76.9594 38.5058 74.8892 38.5058C71.5509 38.5058 69.0667 35.7887 69.0667 31.6222C69.0667 27.4558 71.5509 24.7387 74.8892 24.7387C76.9336 24.7387 78.3828 25.6961 79.2109 27.1971H79.4178V24.9974H82.1609V43.5002H79.2109Z" fill="#1A1A1A"/>
<path d="M84.3519 32.9936V24.9973H87.302V32.7349C87.302 34.831 88.3113 35.8402 89.9933 35.8402C92.0636 35.8402 93.4093 34.3652 93.4093 32.0621V24.9973H96.3593V38.2469H93.6162V35.5038H93.4093C92.7622 37.2635 91.339 38.5056 89.1394 38.5056C85.9822 38.5056 84.3519 36.4872 84.3519 32.9936Z" fill="#1A1A1A"/>
<path d="M106.621 32.9161V32.2174L103.645 32.4245C102.041 32.528 101.316 33.1232 101.316 34.3135C101.316 35.3229 102.144 36.0474 103.309 36.0474C105.405 36.0474 106.621 34.7017 106.621 32.9161ZM98.1588 34.5464C98.1588 32.0622 99.8927 30.613 102.972 30.4318L106.621 30.1989V29.1638C106.621 27.9217 105.715 27.1712 104.111 27.1712C102.636 27.1712 101.756 27.9217 101.523 28.9826H98.573C98.8835 26.2913 101.109 24.7387 104.111 24.7387C107.501 24.7387 109.571 26.1878 109.571 28.9826V38.247H106.828V35.7887H106.621C106 37.4189 104.706 38.5058 102.222 38.5058C99.8409 38.5058 98.1588 36.9013 98.1588 34.5464Z" fill="#1A1A1A"/>
<path d="M111.767 38.2467V24.9971H114.51V27.5333H114.717C115.105 25.7994 116.425 24.9971 118.392 24.9971H119.737V27.6625H118.055C116.14 27.6625 114.717 28.9048 114.717 31.2597V38.2467H111.767Z" fill="#1A1A1A"/>
<path d="M130.419 30.1211C130.315 28.2837 128.788 27.0416 126.925 27.0416C125.165 27.0416 123.69 28.1543 123.328 30.1211H130.419ZM133.239 32.1655H123.173C123.328 34.598 125.036 35.9696 126.925 35.9696C128.529 35.9696 129.539 35.3225 130.108 34.2357H133.032C132.23 36.927 129.875 38.5056 126.899 38.5056C122.992 38.5056 120.249 35.5814 120.249 31.6221C120.249 27.6627 123.069 24.7384 126.925 24.7384C130.807 24.7384 133.343 27.4038 133.343 30.7163C133.343 31.3632 133.291 31.6997 133.239 32.1655Z" fill="#1A1A1A"/>
</mask>
<g mask="url(#mask0_2185_259)">
<rect x="-231" y="11" width="1444.49" height="53.8962" fill="url(#paint0_linear_2185_259)"/>
</g>
</g>
<defs>
<linearGradient id="paint0_linear_2185_259" x1="-231" y1="11" x2="1213.49" y2="11" gradientUnits="userSpaceOnUse">
<stop stop-color="#D9D9D9" stop-opacity="0"/>
<stop offset="0.119792" stop-color="#B9A8FF"/>
<stop offset="0.822917" stop-color="#B9A8FF"/>
<stop offset="1" stop-color="#D9D9D9" stop-opacity="0"/>
</linearGradient>
<clipPath id="clip0_2185_259">
<rect width="151" height="58" fill="white"/>
</clipPath>
</defs>
</svg>
