<svg width="174" height="58" viewBox="0 0 174 58" fill="none" xmlns="http://www.w3.org/2000/svg">
<g clip-path="url(#clip0_2185_259)">
<mask id="mask0_2185_259" style="mask-type:alpha" maskUnits="userSpaceOnUse" x="0" y="0" width="816" height="58">
<path d="M106.154 25.0602C103.999 23.1508 101.397 22.2176 98.3884 22.2176C95.4214 22.2176 92.8193 23.1524 90.6623 25.0602C88.5068 26.9281 87.4116 29.5282 87.4116 32.8588C87.4116 36.1895 88.5068 38.7879 90.6623 40.6975C92.8179 42.5654 95.4214 43.5001 98.3884 43.5001C101.397 43.5001 103.999 42.5654 106.154 40.6975C108.351 38.7879 109.446 36.1895 109.446 32.8588C109.446 29.5282 108.35 26.9281 106.154 25.0602ZM94.3245 37.1227C93.1877 36.0268 92.6153 34.604 92.6153 32.8588C92.6153 31.1122 93.183 29.6909 94.3245 28.6349C95.4613 27.539 96.805 27.011 98.3868 27.011C99.97 27.011 101.354 27.539 102.492 28.6349C103.669 29.6909 104.241 31.1122 104.241 32.8588C104.241 34.6055 103.673 36.0268 102.492 37.1227C101.355 38.1787 99.9716 38.7067 98.3868 38.7067C96.805 38.7067 95.4643 38.1787 94.3245 37.1227Z" fill="#21262E"/>
<path d="M117.134 42.9299V15.0598H112.012V42.9299H117.134Z" fill="#21262E"/>
<path d="M133.669 22.7849V33.905C133.669 36.5849 132.219 38.3609 129.459 38.3609C126.653 38.3609 125.242 36.5865 125.242 33.905V22.7849H120.11V34.7584C120.11 39.3967 123.037 43.498 129.459 43.498H129.499C135.881 43.498 138.804 39.3063 138.804 34.7584V22.7849H133.669Z" fill="#21262E"/>
<path d="M81.9581 22.7849L76.8355 36.4314L71.7129 22.7849H66.2651L74.4392 42.9301H79.2381L87.4105 22.7849H81.9581Z" fill="#21262E"/>
<path d="M66.2915 32.2894C66.2915 29.3655 65.3572 26.9696 63.527 25.0602C61.6967 23.1508 59.3417 22.2176 56.4544 22.2176C53.4874 22.2176 50.9653 23.2337 48.8912 25.2229C46.8568 27.2136 45.8428 29.7308 45.8428 32.8588C45.8428 35.9869 46.8585 38.5455 48.8513 40.5347C50.8855 42.5255 53.3248 43.5001 56.2106 43.5001C60.6444 43.5001 63.774 41.5508 65.6808 37.6108L61.861 35.4175C60.6028 37.8947 58.7712 39.1134 56.2918 39.1134C53.2436 39.1134 51.088 37.1642 50.7628 34.0775H66.2901V32.2894H66.2915ZM56.2888 26.1162C59.1746 26.1162 61.0877 27.7401 61.574 30.3401H50.7598C51.5344 27.9442 53.6454 26.1162 56.2888 26.1162Z" fill="#21262E"/>
<path d="M45.8433 42.9304L38.9703 30.9093C43.3181 29.3253 45.4736 26.564 45.4736 22.5427C45.4782 17.6281 41.5722 14.5 35.3528 14.5H23.1992V42.9304H28.5657V31.3958H33.1206L39.7052 42.9304H45.8433ZM35.3528 19.2105C38.5239 19.2105 40.1102 20.4691 40.1102 22.9464C40.1102 25.4237 38.5223 26.6822 35.3528 26.6822H28.5657V19.2105H35.3528Z" fill="#21262E"/>
<path d="M147.487 43.4982C144.191 43.4982 141.517 40.826 141.517 37.5277V17.3427H146.639V22.793H151.031V26.9356H146.639V37.1992C146.639 38.1662 147.423 38.9489 148.393 38.9489H151.031V43.4982H147.487Z" fill="#21262E"/>
</mask>
<g mask="url(#mask0_2185_259)">
<rect x="-231" y="11" width="1444.49" height="53.8962" fill="url(#paint0_linear_2185_259)"/>
</g>
</g>
<defs>
<linearGradient id="paint0_linear_2185_259" x1="-231" y1="11" x2="1213.49" y2="11" gradientUnits="userSpaceOnUse">
<stop stop-color="#D9D9D9" stop-opacity="0"/>
<stop offset="0.119792" stop-color="#B9A8FF"/>
<stop offset="0.822917" stop-color="#B9A8FF"/>
<stop offset="1" stop-color="#D9D9D9" stop-opacity="0"/>
</linearGradient>
<clipPath id="clip0_2185_259">
<rect width="174" height="58" fill="white"/>
</clipPath>
</defs>
</svg>
