<svg width="124" height="58" viewBox="0 0 124 58" fill="none" xmlns="http://www.w3.org/2000/svg">
<g clip-path="url(#clip0_2185_259)">
<mask id="mask0_2185_259" style="mask-type:alpha" maskUnits="userSpaceOnUse" x="0" y="0" width="1665" height="58">
<path fill-rule="evenodd" clip-rule="evenodd" d="M102.255 29.5809C102.255 23.6337 99.3745 18.9411 93.8686 18.9411C88.3395 18.9411 84.9941 23.6337 84.9941 29.5344C84.9941 36.5269 88.9435 40.058 94.612 40.058C97.3766 40.058 99.4675 39.4308 101.047 38.548V33.9018C99.4675 34.6917 97.6554 35.1795 95.3555 35.1795C93.102 35.1795 91.1041 34.3897 90.8485 31.6484H102.209C102.209 31.3464 102.255 30.1384 102.255 29.5809ZM90.7788 27.3739C90.7788 24.7488 92.3818 23.657 93.8454 23.657C95.2625 23.657 96.7726 24.7488 96.7726 27.3739H90.7788ZM76.0267 18.9411C73.75 18.9411 72.2864 20.0097 71.4733 20.7531L71.1712 19.3128H66.0603V46.4001L71.8682 45.1689L71.8914 38.5945C72.7278 39.1985 73.959 40.058 76.0034 40.058C80.1619 40.058 83.9487 36.7128 83.9487 29.3486C83.9255 22.6116 80.0922 18.9411 76.0267 18.9411ZM74.6328 34.9472C73.2621 34.9472 72.449 34.4594 71.8914 33.8554L71.8682 25.2367C72.4722 24.563 73.3086 24.0984 74.6328 24.0984C76.7469 24.0984 78.2105 26.4679 78.2105 29.5112C78.2105 32.6241 76.7701 34.9472 74.6328 34.9472ZM58.0686 17.5705L63.8997 16.316V11.6001L58.0686 12.8313V17.5705ZM58.0686 19.336H63.8997V39.6631H58.0686V19.336ZM51.8192 21.0551L51.4475 19.336H46.4295V39.6631H52.2374V25.8871C53.6081 24.0984 55.9312 24.4236 56.6514 24.6791V19.336C55.908 19.0572 53.1899 18.5462 51.8192 21.0551ZM40.2034 14.2949L34.5348 15.5029L34.5116 34.1109C34.5116 37.5491 37.0903 40.0813 40.5286 40.0813C42.4336 40.0813 43.8275 39.7328 44.5942 39.3147V34.5988C43.8507 34.9008 40.1801 35.9694 40.1801 32.5312V24.2842H44.5942V19.336H40.1801L40.2034 14.2949ZM24.4987 25.2367C24.4987 24.3307 25.2421 23.9822 26.4734 23.9822C28.239 23.9822 30.4693 24.5165 32.2349 25.469V20.0097C30.3066 19.2431 28.4016 18.9411 26.4734 18.9411C21.7574 18.9411 18.6211 21.4036 18.6211 25.5155C18.6211 31.9272 27.4491 30.905 27.4491 33.6695C27.4491 34.7381 26.5199 35.0866 25.2189 35.0866C23.2907 35.0866 20.8281 34.2968 18.8766 33.2281V38.7571C21.0372 39.6863 23.221 40.0813 25.2189 40.0813C30.0511 40.0813 33.3732 37.6885 33.3732 33.5301C33.35 26.6073 24.4987 27.8385 24.4987 25.2367Z" fill="#635BFF"/>
</mask>
<g mask="url(#mask0_2185_259)">
<rect x="-231" y="11" width="1444.49" height="53.8962" fill="url(#paint0_linear_2185_259)"/>
</g>
</g>
<defs>
<linearGradient id="paint0_linear_2185_259" x1="-231" y1="11" x2="1213.49" y2="11" gradientUnits="userSpaceOnUse">
<stop stop-color="#D9D9D9" stop-opacity="0"/>
<stop offset="0.119792" stop-color="#B9A8FF"/>
<stop offset="0.822917" stop-color="#B9A8FF"/>
<stop offset="1" stop-color="#D9D9D9" stop-opacity="0"/>
</linearGradient>
<clipPath id="clip0_2185_259">
<rect width="124" height="58" fill="white"/>
</clipPath>
</defs>
</svg>
