<svg width="174" height="58" viewBox="0 0 174 58" fill="none" xmlns="http://www.w3.org/2000/svg">
<g clip-path="url(#clip0_2185_259)">
<mask id="mask0_2185_259" style="mask-type:alpha" maskUnits="userSpaceOnUse" x="0" y="0" width="174" height="58">
<path d="M40.9036 10.6802H33.8439C33.8557 13.5089 33.2016 16.3007 31.9345 18.8298C30.6673 21.3588 28.8227 23.5541 26.5499 25.2382L23.7561 27.329L34.5709 42.0913H43.4811L33.5195 28.5066C35.8712 26.1736 37.7352 23.396 39.003 20.3355C40.2707 17.275 40.9168 13.9928 40.9036 10.6802Z" fill="#000008"/>
<path d="M15.666 42.0913H22.8939V10.6802H15.666V42.0913Z" fill="#000008"/>
<path d="M45.581 42.0789H52.3883V10.6858H45.581V42.0789Z" fill="#000008"/>
<path d="M112.093 19.7828C109.498 19.7828 107.041 20.5879 105.4 22.7869V20.3656H98.9234V42.0794H105.478V30.6637C105.478 27.3592 107.689 25.743 110.357 25.743C113.217 25.743 114.857 27.4493 114.857 30.6157V42.0794H121.352V28.2604C121.352 23.2075 117.333 19.7708 112.093 19.7708V19.7828Z" fill="#000008"/>
<path d="M67.0428 36.8099C65.5213 36.8487 64.0466 36.282 62.9426 35.2343C61.8386 34.1867 61.1956 32.7437 61.1547 31.2223C61.238 29.7162 61.895 28.2992 62.9906 27.2625C64.0863 26.2258 65.5374 25.6481 67.0458 25.6481C68.5541 25.6481 70.0052 26.2258 71.1009 27.2625C72.1965 28.2992 72.8535 29.7162 72.9368 31.2223C72.896 32.7447 72.2521 34.1887 71.1468 35.2365C70.0415 36.2843 68.5653 36.8503 67.0428 36.8099ZM72.9549 20.3654V21.7533C71.4723 20.7432 69.7733 20.0954 67.9946 19.8619C66.2159 19.6285 64.4073 19.816 62.7143 20.4093C61.0213 21.0026 59.4913 21.9852 58.2474 23.2779C57.0036 24.5706 56.0806 26.1373 55.5529 27.8518C55.0252 29.5664 54.9075 31.3809 55.2092 33.1493C55.5109 34.9177 56.2236 36.5905 57.29 38.0331C58.3564 39.4757 59.7466 40.6477 61.3487 41.4548C62.9508 42.262 64.7201 42.6816 66.514 42.68C68.8097 42.6935 71.0554 42.0106 72.9549 40.7213V42.1092H79.4618V20.3654H72.9549Z" fill="#000008"/>
<path d="M89.5206 23.1957V20.3658H82.8634V42.0796H89.5326V31.9437C89.5326 28.519 93.2397 26.6804 95.8172 26.6804H95.8893V20.3658C93.2517 20.3658 90.8243 21.4953 89.5206 23.1957Z" fill="#000008"/>
<path d="M135.639 36.8099C134.118 36.8487 132.643 36.282 131.539 35.2343C130.435 34.1867 129.792 32.7437 129.751 31.2223C129.834 29.7162 130.491 28.2992 131.587 27.2625C132.683 26.2258 134.134 25.6481 135.642 25.6481C137.15 25.6481 138.602 26.2258 139.697 27.2625C140.793 28.2992 141.45 29.7162 141.533 31.2223C141.492 32.7447 140.848 34.1887 139.743 35.2365C138.638 36.2844 137.162 36.8503 135.639 36.8099ZM141.557 20.3654V21.7533C139.835 20.5801 137.826 19.8987 135.746 19.7824C133.665 19.6661 131.592 20.1193 129.75 21.0932C127.908 22.0671 126.367 23.5249 125.292 25.3097C124.216 27.0944 123.648 29.1386 123.648 31.2223C123.648 33.3059 124.216 35.3501 125.292 37.1348C126.367 38.9196 127.908 40.3774 129.75 41.3513C131.592 42.3252 133.665 42.7784 135.746 42.6621C137.826 42.5458 139.835 41.8644 141.557 40.6913V42.0792H148.058V20.3654H141.557Z" fill="#000008"/>
<path d="M154.962 34.377C154.154 34.3758 153.364 34.6144 152.691 35.0626C152.018 35.5108 151.494 36.1485 151.183 36.8949C150.873 37.6414 150.792 38.4631 150.949 39.256C151.105 40.0489 151.494 40.7775 152.065 41.3494C152.636 41.9214 153.364 42.3111 154.157 42.4693C154.95 42.6274 155.772 42.5468 156.518 42.2378C157.265 41.9287 157.904 41.4051 158.353 40.7331C158.802 40.0611 159.042 39.2709 159.042 38.4626C159.043 37.9264 158.938 37.3952 158.733 36.8996C158.528 36.4039 158.228 35.9535 157.849 35.574C157.47 35.1945 157.02 34.8935 156.525 34.6881C156.03 34.4827 155.499 34.377 154.962 34.377Z" fill="#000008"/>
</mask>
<g mask="url(#mask0_2185_259)">
<rect x="-231" y="11" width="1444.49" height="53.8962" fill="url(#paint0_linear_2185_259)"/>
</g>
</g>
<defs>
<linearGradient id="paint0_linear_2185_259" x1="-231" y1="11" x2="1213.49" y2="11" gradientUnits="userSpaceOnUse">
<stop stop-color="#D9D9D9" stop-opacity="0"/>
<stop offset="0.119792" stop-color="#B9A8FF"/>
<stop offset="0.822917" stop-color="#B9A8FF"/>
<stop offset="1" stop-color="#D9D9D9" stop-opacity="0"/>
</linearGradient>
<clipPath id="clip0_2185_259">
<rect width="174" height="58" fill="white"/>
</clipPath>
</defs>
</svg>
