<svg width="101" height="58" viewBox="0 0 101 58" fill="none" xmlns="http://www.w3.org/2000/svg">
<g clip-path="url(#clip0_2185_259)">
<mask id="mask0_2185_259" style="mask-type:alpha" maskUnits="userSpaceOnUse" x="0" y="0" width="1067" height="58">
<path d="M60.3468 39.2395C59.8743 38.4129 59.5788 37.4817 59.4434 36.3937C59.4242 36.2422 59.3441 36.1057 59.2204 36.0161C59.1255 35.9467 59.0124 35.9105 58.8972 35.9105C58.862 35.9105 58.8268 35.9137 58.7916 35.9201C58.5879 35.9606 58.3841 35.9809 58.1868 35.9809C57.5511 35.9809 57.0647 35.8742 57.0647 34.5302V33.2438H57.0615V15.1745C57.0615 14.8971 56.8364 14.6721 56.558 14.6721H52.9057C52.6284 14.6721 52.4033 14.8971 52.4033 15.1745V34.9654C52.4033 36.4481 52.5399 37.5681 53.2204 38.5686C54.0535 39.7131 55.7121 40.3777 57.2364 40.3777C57.3164 40.3777 57.3964 40.3766 57.4732 40.3766H57.4753C58.4012 40.3766 59.3047 40.2923 60.0492 40.0331C60.2039 39.9798 60.3266 39.8593 60.3842 39.7057C60.4418 39.5521 60.4279 39.3814 60.3468 39.2395Z" fill="#6D1ED4"/>
<path d="M70.2586 38.6034C69.5855 37.6221 69.3754 37.4525 68.922 36.3933C68.8612 36.2535 68.8228 36.1053 68.6991 36.0157C68.6042 35.9463 68.4911 35.9111 68.3748 35.9111C68.3407 35.9111 68.3055 35.9143 68.2703 35.9207C68.0666 35.9602 67.8628 35.9805 67.6655 35.9805C67.0298 35.9805 66.5434 35.8738 66.5434 34.5309V33.2434L66.5402 33.2445V15.1751C66.5402 14.8967 66.3151 14.6727 66.0378 14.6727H62.3844C62.1071 14.6727 61.882 14.8967 61.882 15.1751V34.965C61.882 36.4477 62.0185 37.5677 62.6991 38.5682C63.5322 39.7138 65.1908 40.3773 66.7151 40.3773C66.7951 40.3773 66.874 40.3773 66.9508 40.3762H66.954C67.8799 40.3762 68.7834 40.2919 69.5279 40.0327C69.6826 39.9794 70.2362 39.6978 70.3503 39.5815C70.7077 39.2135 70.3514 38.7389 70.2586 38.6034Z" fill="#6D1ED4"/>
<path d="M41.2635 21.1441C38.4923 21.1441 36.137 22.119 34.4549 23.9643C32.8688 25.703 31.9952 28.1467 31.9952 30.8433C31.9952 33.5814 32.8602 35.9302 34.4965 37.6379C36.216 39.4299 38.6821 40.3771 41.6283 40.3771C44.8112 40.3771 47.48 39.2635 49.5632 37.0662C49.7542 36.8657 49.7627 36.4987 49.5472 36.3579C49.3307 36.2161 48.2459 35.4801 47.1568 34.0667C47.0267 33.9771 46.9382 33.927 46.808 33.927H46.7942C46.6587 33.9313 46.5318 33.9889 46.44 34.087C45.1888 35.4353 43.5824 35.9857 41.7296 35.9857C38.9861 35.9857 37.2955 34.6897 36.9658 32.1766H49.6966C49.9526 32.1766 50.1691 31.9835 50.1968 31.7286C50.2427 31.3201 50.2662 30.8646 50.2662 30.4123C50.2662 27.8097 49.4118 25.463 47.8598 23.8054C46.2299 22.0646 43.9483 21.1441 41.2635 21.1441ZM37.0533 28.5147C37.4341 26.4251 39.0491 25.1046 41.2965 25.1046C43.5653 25.1046 45.1035 26.3675 45.5014 28.5147H37.0533Z" fill="#6D1ED4"/>
<path d="M79.2059 21.1441C76.4347 21.1441 74.0795 22.119 72.3974 23.9643C70.8112 25.703 69.9376 28.1467 69.9376 30.8433C69.9376 33.5814 70.8027 35.9302 72.439 37.6379C74.1585 39.4299 76.6246 40.3771 79.5718 40.3771C82.7537 40.3771 85.4225 39.2635 87.5057 37.0662C87.6967 36.8657 87.7052 36.4987 87.4897 36.3579C87.2732 36.2161 86.1884 35.4801 85.0993 34.0667C84.9702 33.9771 84.8806 33.927 84.7505 33.927H84.7366C84.6022 33.9313 84.4742 33.9889 84.3825 34.087C83.1313 35.4353 81.5249 35.9857 79.6721 35.9857C76.9286 35.9857 75.2379 34.6897 74.9083 32.1766H87.6391C87.8961 32.1766 88.1116 31.9835 88.1393 31.7286C88.1852 31.3201 88.2087 30.8646 88.2087 30.4123C88.2087 27.8097 87.3543 25.463 85.8022 23.8054C84.1724 22.0646 81.8908 21.1441 79.2059 21.1441ZM74.9958 28.5147C75.3777 26.4251 76.9926 25.1046 79.239 25.1046C81.5078 25.1046 83.046 26.3675 83.4449 28.5147H74.9958Z" fill="#6D1ED4"/>
<path d="M32.8931 39.1239C32.876 39.1058 32.8568 39.0887 32.8387 39.0706C32.8248 39.0567 32.8099 39.0439 32.7971 39.029C31.9406 38.1362 31.2472 37.0802 30.7352 35.8909C30.6552 35.7063 30.4739 35.5869 30.2734 35.5869H20.6936L32.4099 20.5949C32.4782 20.5063 32.5155 20.3975 32.5155 20.2855V17.3639C32.5155 17.0855 32.2915 16.8605 32.0131 16.8605H25.6941V12.6706C25.6941 12.533 25.5811 12.4199 25.4424 12.4199H21.5576C21.4189 12.4199 21.3058 12.533 21.3058 12.6706V16.8605H15.1138C14.8354 16.8605 14.6104 17.0855 14.6104 17.3639V20.7506C14.6104 21.0279 14.8354 21.253 15.1138 21.253H25.8669L14.2199 36.1117C14.1506 36.2002 14.1133 36.309 14.1133 36.4221V39.4759C14.1133 39.7543 14.3373 39.9794 14.6157 39.9794H21.3091V44.1682C21.3091 44.3079 21.4221 44.4199 21.5608 44.4199H25.4456C25.5843 44.4199 25.6973 44.3079 25.6973 44.1682V39.9794H32.5347C32.7374 39.9794 32.9198 39.8578 32.9987 39.6711C33.0766 39.4834 33.035 39.2679 32.8931 39.1239Z" fill="#6D1ED4"/>
</mask>
<g mask="url(#mask0_2185_259)">
<rect x="-231" y="11" width="1444.49" height="53.8962" fill="url(#paint0_linear_2185_259)"/>
</g>
</g>
<defs>
<linearGradient id="paint0_linear_2185_259" x1="-231" y1="11" x2="1213.49" y2="11" gradientUnits="userSpaceOnUse">
<stop stop-color="#D9D9D9" stop-opacity="0"/>
<stop offset="0.119792" stop-color="#B9A8FF"/>
<stop offset="0.822917" stop-color="#B9A8FF"/>
<stop offset="1" stop-color="#D9D9D9" stop-opacity="0"/>
</linearGradient>
<clipPath id="clip0_2185_259">
<rect width="101" height="58" fill="white"/>
</clipPath>
</defs>
</svg>
