<svg width="174" height="58" viewBox="0 0 174 58" fill="none" xmlns="http://www.w3.org/2000/svg">
<g clip-path="url(#clip0_2185_259)">
<mask id="mask0_2185_259" style="mask-type:alpha" maskUnits="userSpaceOnUse" x="0" y="0" width="1989" height="58">
<g clip-path="url(#clip1_2185_259)">
<path d="M72.6395 23.0638C72.5135 23.142 72.3627 23.1697 72.2171 23.1416C72.0716 23.1134 71.942 23.0314 71.8543 22.9119C71.4196 22.2906 70.8373 21.7869 70.1598 21.4462C69.4823 21.1055 68.7308 20.9385 67.9728 20.9601C65.0098 20.9601 63.1876 23.3045 63.1876 26.6527C63.1876 30.0008 65.0395 32.3897 68.0024 32.3897C68.7724 32.4074 69.5341 32.2286 70.2158 31.8703C70.8976 31.5119 71.4767 30.9858 71.8987 30.3416C71.9836 30.2201 72.111 30.1348 72.2556 30.1026C72.4003 30.0704 72.5518 30.0935 72.6802 30.1675L74.0839 30.9823C74.1558 31.024 74.2181 31.0803 74.2669 31.1476C74.3158 31.2148 74.35 31.2916 74.3674 31.3728C74.3849 31.4541 74.3851 31.5381 74.3682 31.6194C74.3513 31.7008 74.3175 31.7777 74.2691 31.8453C73.581 32.8766 72.6424 33.7163 71.5411 34.2857C70.4399 34.8551 69.2121 35.1356 67.9728 35.1008C63.258 35.1008 60.0469 31.6638 60.0469 26.6527C60.0469 21.6416 63.258 18.249 67.9246 18.249C69.1432 18.2151 70.3516 18.4803 71.444 19.0214C72.5364 19.5624 73.4797 20.3629 74.1913 21.3527C74.2401 21.419 74.2748 21.4947 74.2931 21.5751C74.3114 21.6554 74.3129 21.7387 74.2976 21.8196C74.2823 21.9006 74.2505 21.9775 74.2042 22.0457C74.1579 22.1138 74.098 22.1717 74.0283 22.2156L72.6395 23.0638Z" fill="#1C1D1F"/>
<path d="M83.0117 34.212V33.5305C82.271 34.4861 81.2339 35.0787 79.571 35.0787C77.1117 35.0787 75.4043 33.7342 75.4043 31.375C75.4043 28.4379 78.0228 27.9342 79.6413 27.7083C81.371 27.4564 82.8524 27.3379 82.8524 26.2046C82.8524 25.2009 81.6895 24.9305 80.708 24.9305C79.5826 24.9497 78.477 25.2299 77.4784 25.749C77.4087 25.7872 77.332 25.8109 77.253 25.8187C77.1739 25.8265 77.0941 25.8182 77.0183 25.7943C76.9425 25.7705 76.8723 25.7315 76.812 25.6798C76.7517 25.6281 76.7024 25.5647 76.6673 25.4935L76.1487 24.4416C76.08 24.3046 76.067 24.1462 76.1126 23.9997C76.1582 23.8533 76.2588 23.7303 76.3932 23.6564C77.7896 22.9069 79.3491 22.5126 80.9339 22.5083C83.7561 22.5083 85.7487 23.6676 85.7487 26.4713V34.212C85.7487 34.3692 85.6863 34.5199 85.5752 34.631C85.464 34.7422 85.3133 34.8046 85.1561 34.8046H83.6006C83.4441 34.8036 83.2943 34.7408 83.184 34.6297C83.0736 34.5187 83.0117 34.3685 83.0117 34.212ZM82.8524 28.8602C82.3043 29.2713 81.3006 29.4083 80.2302 29.6009C79.1599 29.7935 78.2747 30.0787 78.2747 31.2416C78.2747 32.312 79.0487 32.812 80.1636 32.812C81.5524 32.812 82.8524 32.0379 82.8524 30.2379V28.8602Z" fill="#1C1D1F"/>
<path d="M88.3058 31.7379C88.4058 31.6205 88.5477 31.5467 88.7012 31.5322C88.8547 31.5176 89.0078 31.5635 89.1281 31.6601C90.1167 32.4082 91.3294 32.7998 92.5688 32.7712C93.8466 32.7712 94.791 32.3601 94.791 31.3601C94.791 30.449 93.9244 30.249 91.8281 29.9008C89.6058 29.5305 87.4762 28.7897 87.4762 26.2564C87.4762 23.6156 89.754 22.5008 92.3503 22.5008C93.9785 22.4762 95.568 22.9978 96.8651 23.9823C96.9288 24.0316 96.9818 24.0934 97.0207 24.1639C97.0596 24.2345 97.0836 24.3122 97.0912 24.3924C97.0989 24.4726 97.09 24.5535 97.0651 24.6302C97.0402 24.7068 96.9999 24.7775 96.9466 24.8379L96.2058 25.7082C96.1076 25.825 95.9684 25.8996 95.8169 25.9168C95.6653 25.9341 95.5129 25.8925 95.391 25.8008C94.4866 25.1355 93.3916 24.7796 92.2688 24.786C91.1577 24.786 90.2207 25.1045 90.2207 25.9675C90.2207 26.9268 91.5651 27.1082 92.9096 27.3342C95.7762 27.8379 97.5984 28.6564 97.5984 31.0379C97.5984 33.5453 95.5947 35.0934 92.4133 35.0934C90.6738 35.1464 88.9706 34.5896 87.5984 33.5194C87.537 33.4692 87.4861 33.4074 87.4488 33.3374C87.4116 33.2673 87.3886 33.1906 87.3814 33.1116C87.3742 33.0326 87.3827 32.953 87.4067 32.8774C87.4306 32.8018 87.4693 32.7317 87.5207 32.6712L88.3058 31.7379Z" fill="#1C1D1F"/>
<path d="M99.3359 34.2116V19.1375C99.3359 18.9803 99.3984 18.8296 99.5095 18.7185C99.6206 18.6074 99.7714 18.5449 99.9285 18.5449H101.636C101.793 18.5449 101.944 18.6074 102.055 18.7185C102.166 18.8296 102.229 18.9803 102.229 19.1375V24.282C102.653 23.714 103.207 23.2564 103.845 22.9476C104.484 22.6389 105.187 22.4881 105.895 22.5079C108.425 22.5079 109.903 24.3079 109.903 26.8783V34.2116C109.903 34.3688 109.84 34.5195 109.729 34.6306C109.618 34.7417 109.467 34.8042 109.31 34.8042H107.603C107.445 34.8042 107.295 34.7417 107.184 34.6306C107.072 34.5195 107.01 34.3688 107.01 34.2116V27.5449C107.01 26.2671 106.603 25.1079 104.962 25.1079C103.414 25.1079 102.229 26.2005 102.229 28.0227V34.2116C102.229 34.3688 102.166 34.5195 102.055 34.6306C101.944 34.7417 101.793 34.8042 101.636 34.8042H99.9285C99.7714 34.8042 99.6206 34.7417 99.5095 34.6306C99.3984 34.5195 99.3359 34.3688 99.3359 34.2116Z" fill="#1C1D1F"/>
<path d="M128.691 34.4008L127.454 30.7749H121.247L120.017 34.4008C119.978 34.5187 119.902 34.6211 119.801 34.6935C119.7 34.766 119.579 34.8048 119.454 34.8045H117.454C117.359 34.8046 117.264 34.7815 117.179 34.7372C117.095 34.6928 117.022 34.6286 116.967 34.55C116.913 34.4713 116.878 34.3806 116.866 34.2857C116.854 34.1907 116.865 34.0942 116.899 34.0045L122.491 18.9305C122.536 18.82 122.613 18.7257 122.712 18.6596C122.811 18.5935 122.928 18.5588 123.047 18.5601H125.799C125.918 18.5588 126.035 18.5935 126.134 18.6596C126.233 18.7257 126.31 18.82 126.354 18.9305L131.928 34.0082C131.961 34.0977 131.972 34.1938 131.96 34.2882C131.947 34.3827 131.912 34.4729 131.858 34.551C131.803 34.6292 131.731 34.693 131.646 34.7371C131.562 34.7813 131.468 34.8044 131.373 34.8045H129.254C129.13 34.8048 129.009 34.766 128.908 34.6935C128.807 34.6211 128.731 34.5187 128.691 34.4008ZM124.388 21.186L121.999 28.249H126.688L124.388 21.186Z" fill="#1C1D1F"/>
<path d="M136.209 23.3753V24.3087C136.629 23.7255 137.187 23.2557 137.834 22.9415C138.48 22.6274 139.195 22.4786 139.913 22.5087C143.194 22.5087 145.313 25.2198 145.313 28.7716C145.313 32.3235 143.194 35.0679 139.913 35.0679C139.193 35.0952 138.477 34.9429 137.831 34.6248C137.184 34.3067 136.627 33.8328 136.209 33.2457V38.1753C136.209 38.3325 136.147 38.4832 136.035 38.5944C135.924 38.7055 135.774 38.7679 135.616 38.7679H133.909C133.752 38.7679 133.601 38.7055 133.49 38.5944C133.379 38.4832 133.316 38.3325 133.316 38.1753V23.3605C133.316 23.2034 133.379 23.0526 133.49 22.9415C133.601 22.8304 133.752 22.7679 133.909 22.7679H135.602C135.682 22.7659 135.762 22.7802 135.836 22.81C135.911 22.8398 135.979 22.8845 136.036 22.9413C136.092 22.9981 136.137 23.0659 136.167 23.1405C136.197 23.2151 136.211 23.295 136.209 23.3753ZM139.305 32.5494C141.309 32.5494 142.29 30.842 142.29 28.7716C142.29 26.7013 141.309 25.0346 139.305 25.0346C137.302 25.0346 136.209 26.6976 136.209 28.7716C136.209 30.8457 137.279 32.5494 139.305 32.5494Z" fill="#1C1D1F"/>
<path d="M149.989 23.3751V24.3084C150.409 23.726 150.968 23.2567 151.614 22.9426C152.26 22.6286 152.974 22.4794 153.692 22.5084C156.97 22.5084 159.089 25.2196 159.089 28.7714C159.089 32.3233 156.97 35.0677 153.692 35.0677C152.972 35.0939 152.257 34.9412 151.611 34.6232C150.964 34.3052 150.407 33.8318 149.989 33.2455V38.1751C149.989 38.3323 149.926 38.483 149.815 38.5941C149.704 38.7053 149.553 38.7677 149.396 38.7677H147.692C147.535 38.7677 147.384 38.7053 147.273 38.5941C147.162 38.483 147.1 38.3323 147.1 38.1751V23.3603C147.099 23.2823 147.114 23.2051 147.144 23.1329C147.173 23.0608 147.217 22.9953 147.272 22.9402C147.327 22.885 147.393 22.8414 147.465 22.8118C147.537 22.7822 147.614 22.7672 147.692 22.7677H149.396C149.475 22.7672 149.554 22.7826 149.627 22.8131C149.7 22.8437 149.766 22.8886 149.821 22.9453C149.877 23.0021 149.92 23.0693 149.949 23.1432C149.977 23.217 149.991 23.2959 149.989 23.3751ZM153.089 32.5492C155.092 32.5492 156.051 30.8418 156.051 28.7714C156.051 26.701 155.074 25.0344 153.089 25.0344C151.103 25.0344 149.989 26.6973 149.989 28.7714C149.989 30.8455 151.063 32.5492 153.089 32.5492Z" fill="#1C1D1F"/>
</g>
<path fill-rule="evenodd" clip-rule="evenodd" d="M42.1011 11.2383C40.3575 10.6904 38.7694 10.6904 35.5413 10.6904H25.8572C22.6476 10.6904 21.041 10.6904 19.327 11.2235C18.3913 11.5624 17.5415 12.1028 16.8378 12.8065C16.1341 13.5102 15.5937 14.36 15.2549 15.2957C14.707 17.0282 14.707 18.6312 14.707 21.8408V31.5252C14.707 34.7534 14.707 36.3415 15.2401 38.0703C15.5789 39.0061 16.1193 39.8559 16.823 40.5596C17.5267 41.2633 18.3765 41.8037 19.3122 42.1425C21.0447 42.6904 22.6476 42.6904 25.8572 42.6904H35.5562C38.7694 42.6904 40.3723 42.6904 42.1011 42.1425C43.0368 41.8037 43.8866 41.2633 44.5903 40.5596C45.294 39.8559 45.8344 39.0061 46.1732 38.0703C46.7211 36.3378 46.7211 34.7349 46.7211 31.5252V21.8556C46.7211 18.6423 46.7211 17.0393 46.1732 15.3105C45.8344 14.3748 45.294 13.525 44.5903 12.8213C43.8866 12.1176 43.0368 11.5772 42.1011 11.2383ZM35.8072 22.7553C34.6068 21.7394 33.0857 21.1808 31.513 21.1783C30.2174 21.1783 28.9217 21.6077 28.9217 22.7998C28.9217 23.8864 30.0753 24.3117 31.4964 24.8355C31.6342 24.8863 31.7745 24.938 31.9165 24.9913C34.7263 25.9391 37.04 27.1015 37.04 29.8558C37.04 32.847 34.7189 34.8905 30.9207 35.1237L30.5764 36.7267C30.545 36.8719 30.4646 37.002 30.3487 37.095C30.2327 37.188 30.0883 37.2383 29.9397 37.2375H27.552C27.4555 37.2352 27.3607 37.2117 27.2743 37.1687C27.1879 37.1257 27.112 37.0642 27.052 36.9886C26.992 36.9131 26.9493 36.8252 26.9269 36.7314C26.9046 36.6375 26.9031 36.5398 26.9227 36.4453L27.2929 34.7535C25.8592 34.3879 24.5412 33.6659 23.4614 32.6545C23.3995 32.5947 23.3502 32.5231 23.3166 32.4439C23.283 32.3648 23.2656 32.2796 23.2656 32.1936C23.2656 32.1075 23.283 32.0224 23.3166 31.9432C23.3502 31.864 23.3995 31.7924 23.4614 31.7327L24.7867 30.437C24.9071 30.3185 25.0693 30.2521 25.2383 30.2521C25.4073 30.2521 25.5695 30.3185 25.6899 30.437C26.9039 31.5953 28.5248 32.2296 30.2026 32.2028C31.9313 32.2028 33.1048 31.4698 33.1048 30.3074C33.1048 29.2565 32.1427 28.9045 30.3168 28.2367C30.123 28.1658 29.9196 28.0914 29.7065 28.0122C27.3595 27.1755 25.1383 25.9798 25.1383 23.1996C25.1383 19.9826 27.8259 18.4129 30.9948 18.2574L31.3279 16.6249C31.36 16.4809 31.4401 16.3521 31.5552 16.2599C31.6703 16.1677 31.8135 16.1175 31.961 16.1177H34.3413C34.437 16.1174 34.5317 16.1384 34.6182 16.1793C34.7048 16.2202 34.7812 16.2798 34.8419 16.3539C34.9025 16.428 34.9459 16.5147 34.9688 16.6077C34.9917 16.7007 34.9936 16.7976 34.9743 16.8914L34.6041 18.7165C35.8159 19.1126 36.9388 19.7414 37.9099 20.5675C37.9761 20.6244 38.0298 20.6944 38.0677 20.7731C38.1055 20.8518 38.1267 20.9375 38.1298 21.0248C38.1329 21.1121 38.118 21.199 38.0859 21.2802C38.0538 21.3615 38.0052 21.4351 37.9432 21.4967L36.7068 22.7368C36.5876 22.8542 36.428 22.9215 36.2607 22.9249C36.0934 22.9283 35.9312 22.8677 35.8072 22.7553Z" fill="url(#paint0_linear_2185_259)"/>
</mask>
<g mask="url(#mask0_2185_259)">
<rect x="-231" y="11" width="1444.49" height="53.8962" fill="url(#paint1_linear_2185_259)"/>
</g>
</g>
<defs>
<linearGradient id="paint0_linear_2185_259" x1="30.6993" y1="42.6756" x2="30.6993" y2="10.6904" gradientUnits="userSpaceOnUse">
<stop stop-color="#00C244"/>
<stop offset="1" stop-color="#00D64B"/>
</linearGradient>
<linearGradient id="paint1_linear_2185_259" x1="-231" y1="11" x2="1213.49" y2="11" gradientUnits="userSpaceOnUse">
<stop stop-color="#D9D9D9" stop-opacity="0"/>
<stop offset="0.119792" stop-color="#B9A8FF"/>
<stop offset="0.822917" stop-color="#B9A8FF"/>
<stop offset="1" stop-color="#D9D9D9" stop-opacity="0"/>
</linearGradient>
<clipPath id="clip0_2185_259">
<rect width="174" height="58" fill="white"/>
</clipPath>
<clipPath id="clip1_2185_259">
<rect width="99.0518" height="20.5185" fill="white" transform="translate(60.0469 18.249)"/>
</clipPath>
</defs>
</svg>
