<svg width="174" height="58" viewBox="0 0 174 58" fill="none" xmlns="http://www.w3.org/2000/svg">
<g clip-path="url(#clip0_2185_259)">
<mask id="mask0_2185_259" style="mask-type:alpha" maskUnits="userSpaceOnUse" x="0" y="0" width="1391" height="58">
<path d="M38.566 22.5962C32.6684 22.5962 28.0603 27.0732 28.0603 33.0665C28.0603 39.0599 32.552 43.4985 38.566 43.4985C44.5799 43.4985 49.1497 38.9833 49.1497 33.0282C49.1497 27.1115 44.6581 22.5962 38.566 22.5962ZM38.6058 39.1793C35.2473 39.1793 32.7863 36.5709 32.7863 33.068C32.7863 29.5254 35.2075 26.9185 38.566 26.9185C41.9642 26.9185 44.4237 29.5651 44.4237 33.068C44.4237 36.5709 41.9642 39.1793 38.6058 39.1793ZM50.4377 27.1513H53.3673V43.111H58.0536V22.9853H50.4377V27.1513ZM16.2667 26.917C18.7277 26.917 20.6803 28.4349 21.4215 30.6925H26.3818C25.4829 25.8663 21.4996 22.5962 16.3065 22.5962C10.4089 22.5962 5.80078 27.0732 5.80078 33.068C5.80078 39.0628 10.2925 43.5 16.3065 43.5C21.3832 43.5 25.4446 40.23 26.3435 35.364H21.4215C20.7186 37.6216 18.766 39.1793 16.305 39.1793C12.9067 39.1793 10.5253 36.5709 10.5253 33.068C10.5268 29.5254 12.8699 26.917 16.2667 26.917ZM139.479 31.1213L136.042 30.6159C134.402 30.383 133.23 29.8378 133.23 28.5527C133.23 27.1513 134.754 26.4513 136.823 26.4513C139.088 26.4513 140.534 27.4239 140.846 29.0199H145.376C144.868 24.9718 141.744 22.5977 136.941 22.5977C131.981 22.5977 128.7 25.128 128.7 28.709C128.7 32.1337 130.849 34.1202 135.183 34.7421L138.62 35.2475C140.3 35.4804 141.237 36.1435 141.237 37.3888C141.237 38.9847 139.597 39.6464 137.332 39.6464C134.558 39.6464 132.996 38.5176 132.762 36.8052H128.154C128.584 40.7369 131.668 43.5 137.292 43.5C142.408 43.5 145.805 41.1643 145.805 37.1545C145.805 33.5735 143.346 31.7049 139.479 31.1213ZM55.7104 14.6945C53.9922 14.6945 52.7027 15.9398 52.7027 17.6521C52.7027 19.3645 53.9907 20.6098 55.7104 20.6098C57.4287 20.6098 58.7182 19.3645 58.7182 17.6521C58.7182 15.9398 57.4287 14.6945 55.7104 14.6945ZM124.483 29.8761C124.483 25.517 121.827 22.5977 116.204 22.5977C110.893 22.5977 107.925 25.2842 107.338 29.4104H111.986C112.221 27.8144 113.47 26.4911 116.126 26.4911C118.509 26.4911 119.68 27.5418 119.68 28.8268C119.68 30.5009 117.532 30.9283 114.876 31.2009C111.283 31.5899 106.831 32.8352 106.831 37.5067C106.831 41.1274 109.527 43.4617 113.822 43.4617C117.181 43.4617 119.29 42.0602 120.345 39.8409C120.501 41.8259 121.985 43.111 124.056 43.111H126.789V38.9464H124.484V29.8761H124.483ZM119.875 34.9366C119.875 37.6231 117.532 39.6081 114.68 39.6081C112.922 39.6081 111.438 38.8683 111.438 37.3121C111.438 35.3271 113.821 34.7819 116.008 34.549C118.117 34.3545 119.288 33.8874 119.875 32.9914V34.9366ZM94.998 22.5962C92.3808 22.5962 90.1939 23.6867 88.6318 25.5155V14.5H83.9456V43.111H88.5537V40.4643C90.1158 42.3712 92.3425 43.5 94.998 43.5C100.621 43.5 104.879 39.0628 104.879 33.068C104.879 27.0732 100.543 22.5962 94.998 22.5962ZM94.2951 39.1793C90.9366 39.1793 88.4756 36.5709 88.4756 33.068C88.4756 29.5651 90.975 26.9185 94.3334 26.9185C97.7317 26.9185 100.113 29.5268 100.113 33.068C100.113 36.5709 97.6535 39.1793 94.2951 39.1793ZM72.737 22.5962C69.691 22.5962 67.6986 23.8415 66.5271 25.5937V22.9853H61.8792V43.1095H66.5654V32.172C66.5654 29.0965 68.518 26.917 71.4078 26.917C74.1031 26.917 75.7816 28.8239 75.7816 31.5885V43.111H80.4678V31.2392C80.4693 26.1772 77.8536 22.5962 72.737 22.5962ZM168.144 32.4063C168.144 26.6458 163.927 22.5977 158.263 22.5977C152.249 22.5977 147.836 27.113 147.836 33.068C147.836 39.3355 152.562 43.5 158.342 43.5C163.224 43.5 167.051 40.619 168.026 36.5326H163.144C162.441 38.3231 160.723 39.3355 158.418 39.3355C155.41 39.3355 153.145 37.4669 152.638 34.1968H168.143V32.4063H168.144ZM152.913 30.8487C153.655 28.0458 155.764 26.6842 158.185 26.6842C160.841 26.6842 162.872 28.202 163.34 30.8487H152.913Z" fill="#0052FF"/>
</mask>
<g mask="url(#mask0_2185_259)">
<rect x="-231" y="11" width="1444.49" height="53.8962" fill="url(#paint0_linear_2185_259)"/>
</g>
</g>
<defs>
<linearGradient id="paint0_linear_2185_259" x1="-231" y1="11" x2="1213.49" y2="11" gradientUnits="userSpaceOnUse">
<stop stop-color="#D9D9D9" stop-opacity="0"/>
<stop offset="0.119792" stop-color="#B9A8FF"/>
<stop offset="0.822917" stop-color="#B9A8FF"/>
<stop offset="1" stop-color="#D9D9D9" stop-opacity="0"/>
</linearGradient>
<clipPath id="clip0_2185_259">
<rect width="174" height="58" fill="white"/>
</clipPath>
</defs>
</svg>
