<svg width="42" height="43" viewBox="0 0 42 43" fill="none" xmlns="http://www.w3.org/2000/svg">
<g clip-path="url(#clip0_1375_2633)">
<path fill-rule="evenodd" clip-rule="evenodd" d="M14.6441 1.23242C12.3326 1.23242 10.116 2.15062 8.48156 3.78503L0.594971 11.6716V15.2815C0.594971 17.8319 1.69049 20.1265 3.43664 21.7202C1.69049 23.314 0.594971 25.6085 0.594971 28.1589V31.7689L8.48156 39.6554C10.116 41.2899 12.3326 42.208 14.6441 42.208C17.1945 42.208 19.489 41.1125 21.0828 39.3664C22.6765 41.1125 24.9711 42.208 27.5215 42.208C29.8329 42.208 32.0496 41.2899 33.684 39.6554L41.5706 31.7689V28.1589C41.5706 25.6085 40.4751 23.314 38.7289 21.7202C40.4751 20.1265 41.5706 17.8319 41.5706 15.2815V11.6716L33.684 3.78503C32.0496 2.15062 29.8329 1.23242 27.5215 1.23242C24.9711 1.23242 22.6765 2.32794 21.0828 4.07409C19.489 2.32794 17.1945 1.23242 14.6441 1.23242ZM26.982 21.7202C26.8838 21.6306 26.7874 21.5385 26.693 21.444L21.0828 15.8339L15.4726 21.444C15.3782 21.5385 15.2818 21.6306 15.1835 21.7202C15.2818 21.8098 15.3782 21.9019 15.4726 21.9964L21.0828 27.6066L26.693 21.9964C26.7874 21.9019 26.8838 21.8098 26.982 21.7202ZM23.3592 31.7689V33.4929C23.3592 35.7916 25.2227 37.6552 27.5215 37.6552C28.6254 37.6552 29.6841 37.2167 30.4647 36.4361L37.0178 29.883V28.1589C37.0178 25.8602 35.1542 23.9966 32.8555 23.9966C31.7516 23.9966 30.6929 24.4352 29.9123 25.2157L23.3592 31.7689ZM18.8064 31.7689L12.2532 25.2157C11.4727 24.4352 10.414 23.9966 9.31009 23.9966C7.01133 23.9966 5.14781 25.8602 5.14781 28.1589V29.883L11.7009 36.4361C12.4815 37.2167 13.5402 37.6552 14.6441 37.6552C16.9428 37.6552 18.8064 35.7916 18.8064 33.4929V31.7689ZM18.8064 9.94754V11.6716L12.2532 18.2247C11.4727 19.0053 10.414 19.4438 9.31009 19.4438C7.01133 19.4438 5.14781 17.5802 5.14781 15.2815V13.5575L11.7009 7.00437C12.4815 6.22379 13.5402 5.78527 14.6441 5.78527C16.9428 5.78527 18.8064 7.64878 18.8064 9.94754ZM29.9123 18.2247L23.3592 11.6716V9.94754C23.3592 7.64878 25.2227 5.78527 27.5215 5.78527C28.6254 5.78527 29.6841 6.22379 30.4647 7.00437L37.0178 13.5575V15.2815C37.0178 17.5802 35.1542 19.4438 32.8555 19.4438C31.7516 19.4438 30.6929 19.0053 29.9123 18.2247Z" fill="white"/>
</g>
<defs>
<clipPath id="clip0_1375_2633">
<rect width="40.9756" height="42" fill="white" transform="translate(0.594971 0.704102)"/>
</clipPath>
</defs>
</svg>
