<svg width="24" height="24" viewBox="0 0 24 24" fill="none" xmlns="http://www.w3.org/2000/svg">
<g clip-path="url(#clip0_1375_63)">
<path fill-rule="evenodd" clip-rule="evenodd" d="M8.02818 0.677246C6.70736 0.677246 5.44069 1.20193 4.50674 2.13588L0.00012207 6.64247V8.7053C0.00012207 10.1627 0.626136 11.4738 1.62393 12.3846C0.626136 13.2953 0.00012207 14.6064 0.00012207 16.0638V18.1266L4.50674 22.6333C5.44069 23.5672 6.70736 24.0919 8.02818 24.0919C9.48557 24.0919 10.7967 23.4659 11.7074 22.4681C12.6182 23.4659 13.9293 24.0919 15.3867 24.0919C16.7075 24.0919 17.9742 23.5672 18.9081 22.6333L23.4148 18.1266V16.0638C23.4148 14.6064 22.7888 13.2953 21.791 12.3846C22.7888 11.4738 23.4148 10.1627 23.4148 8.7053V6.64247L18.9081 2.13588C17.9742 1.20193 16.7075 0.677246 15.3867 0.677246C13.9293 0.677246 12.6182 1.30326 11.7074 2.30105C10.7967 1.30326 9.48557 0.677246 8.02818 0.677246ZM15.0784 12.3846C15.0223 12.3333 14.9672 12.2807 14.9133 12.2267L11.7074 9.02093L8.50163 12.2267C8.44765 12.2807 8.39257 12.3333 8.33644 12.3846C8.39257 12.4358 8.44765 12.4884 8.50163 12.5424L11.7074 15.7482L14.9133 12.5424C14.9672 12.4884 15.0223 12.4358 15.0784 12.3846ZM13.0082 18.1266V19.1118C13.0082 20.4254 14.0731 21.4903 15.3867 21.4903C16.0175 21.4903 16.6225 21.2397 17.0685 20.7936L20.8132 17.049V16.0638C20.8132 14.7503 19.7483 13.6854 18.4347 13.6854C17.8039 13.6854 17.1989 13.936 16.7529 14.382L13.0082 18.1266ZM10.4066 18.1266L6.662 14.382C6.21595 13.936 5.61099 13.6854 4.98019 13.6854C3.66661 13.6854 2.60175 14.7503 2.60175 16.0638V17.049L6.34637 20.7936C6.79242 21.2397 7.39739 21.4903 8.02818 21.4903C9.34174 21.4903 10.4066 20.4254 10.4066 19.1118V18.1266ZM10.4066 5.65731V6.64247L6.662 10.3871C6.21595 10.8332 5.61099 11.0838 4.98019 11.0838C3.66661 11.0838 2.60175 10.0189 2.60175 8.7053V7.72013L6.34637 3.9755C6.79242 3.52946 7.39739 3.27887 8.02818 3.27887C9.34174 3.27887 10.4066 4.34374 10.4066 5.65731ZM16.7529 10.3871L13.0082 6.64247V5.65731C13.0082 4.34374 14.0731 3.27887 15.3867 3.27887C16.0175 3.27887 16.6225 3.52946 17.0685 3.9755L20.8132 7.72013V8.7053C20.8132 10.0189 19.7483 11.0838 18.4347 11.0838C17.8039 11.0838 17.1989 10.8332 16.7529 10.3871Z" fill="url(#paint0_linear_1375_63)"/>
</g>
<defs>
<linearGradient id="paint0_linear_1375_63" x1="7.2409" y1="0.677246" x2="23.4149" y2="27.2903" gradientUnits="userSpaceOnUse">
<stop stop-color="#E6B1FE"/>
<stop offset="1" stop-color="#9B88FD"/>
</linearGradient>
<clipPath id="clip0_1375_63">
<rect width="23.4146" height="24" fill="white" transform="translate(0.00012207 0.375)"/>
</clipPath>
</defs>
</svg>
