<svg width="168" height="58" viewBox="0 0 168 58" fill="none" xmlns="http://www.w3.org/2000/svg">
<g clip-path="url(#clip0_2185_259)">
<mask id="mask0_2185_259" style="mask-type:alpha" maskUnits="userSpaceOnUse" x="0" y="0" width="492" height="58">
<path d="M92.0096 14.0438H100.674L96.3152 45.1402H87.6508L92.0096 14.0438ZM81.0861 14.0438L75.2389 31.9574L72.6871 14.0438H66.6273L58.9727 31.9042L58.0161 14.0438H49.6171L52.5409 45.1402H59.5045L68.1158 25.4725L71.1458 45.1402H78.0029L89.3253 14.0438H81.0861ZM153.831 32.1168H133.259C133.365 36.157 135.784 38.8147 139.345 38.8147C142.03 38.8147 144.156 37.3794 145.804 34.642L152.749 37.7995C150.362 42.5011 145.334 45.5654 139.133 45.5654C130.681 45.5654 125.073 39.8777 125.073 30.735C125.073 20.6884 131.664 13.5654 140.967 13.5654C149.153 13.5654 154.309 19.0937 154.309 27.7049C154.309 29.1402 154.15 30.5756 153.831 32.1168ZM146.123 26.1635C146.123 22.5489 144.103 20.2631 140.86 20.2631C137.618 20.2631 134.748 22.6551 134.003 26.1635H146.123ZM22.5367 23.4153L13.6914 33.7516H29.4842L31.2597 28.8771H24.4928L28.6284 24.0957L28.6417 23.9681L25.952 19.3409H38.0479L28.6709 45.1402H35.0869L46.4094 14.0438H17.1572L22.534 23.4153H22.5367ZM114.761 20.2631C117.817 20.2631 120.496 21.9057 122.835 24.7229L124.063 15.9575C121.883 14.4824 118.933 13.5654 115.026 13.5654C107.266 13.5654 102.907 18.1103 102.907 23.8778C102.907 27.8778 105.139 30.3229 108.807 31.9042L110.561 32.7018C113.83 34.0971 114.708 34.788 114.708 36.2633C114.708 37.7383 113.233 38.7616 110.987 38.7616C107.279 38.7747 104.276 36.8745 102.016 33.6319L100.765 42.5648C103.337 44.5265 106.636 45.5654 110.987 45.5654C118.362 45.5654 122.894 41.313 122.894 35.4126C122.894 31.3993 121.113 28.8214 116.621 26.8014L114.708 25.8977C112.05 24.715 111.146 24.0638 111.146 22.7615C111.146 21.3528 112.382 20.2631 114.761 20.2631Z" fill="#163300"/>
</mask>
<g mask="url(#mask0_2185_259)">
<rect x="-231" y="11" width="1444.49" height="53.8962" fill="url(#paint0_linear_2185_259)"/>
</g>
</g>
<defs>
<linearGradient id="paint0_linear_2185_259" x1="-231" y1="11" x2="1213.49" y2="11" gradientUnits="userSpaceOnUse">
<stop stop-color="#D9D9D9" stop-opacity="0"/>
<stop offset="0.119792" stop-color="#B9A8FF"/>
<stop offset="0.822917" stop-color="#B9A8FF"/>
<stop offset="1" stop-color="#D9D9D9" stop-opacity="0"/>
</linearGradient>
<clipPath id="clip0_2185_259">
<rect width="168" height="58" fill="white"/>
</clipPath>
</defs>
</svg>
